<svg xmlns="http://www.w3.org/2000/svg" xmlns:xlink="http://www.w3.org/1999/xlink" width="600" height="400" viewBox="0 0 2400 1600">
<defs>
  <clipPath id="clip780">
    <rect x="0" y="0" width="2400" height="1600"></rect>
  </clipPath>
</defs>
<path clip-path="url(#clip780)" d="
M0 1600 L2400 1600 L2400 0 L0 0  Z
  " fill="#ffffff" fill-rule="evenodd" fill-opacity="1"></path>
<defs>
  <clipPath id="clip781">
    <rect x="480" y="0" width="1681" height="1600"></rect>
  </clipPath>
</defs>
<path clip-path="url(#clip780)" d="
M156.598 1486.45 L2352.76 1486.45 L2352.76 47.2441 L156.598 47.2441  Z
  " fill="#ffffff" fill-rule="evenodd" fill-opacity="1"></path>
<defs>
  <clipPath id="clip782">
    <rect x="156" y="47" width="2197" height="1440"></rect>
  </clipPath>
</defs>
<polyline clip-path="url(#clip782)" style="stroke:#000000; stroke-linecap:round; stroke-linejoin:round; stroke-width:2; stroke-opacity:0.1; fill:none" points="
  218.754,1486.45 218.754,47.2441 
  "></polyline>
<polyline clip-path="url(#clip782)" style="stroke:#000000; stroke-linecap:round; stroke-linejoin:round; stroke-width:2; stroke-opacity:0.1; fill:none" points="
  761.148,1486.45 761.148,47.2441 
  "></polyline>
<polyline clip-path="url(#clip782)" style="stroke:#000000; stroke-linecap:round; stroke-linejoin:round; stroke-width:2; stroke-opacity:0.1; fill:none" points="
  1303.54,1486.45 1303.54,47.2441 
  "></polyline>
<polyline clip-path="url(#clip782)" style="stroke:#000000; stroke-linecap:round; stroke-linejoin:round; stroke-width:2; stroke-opacity:0.1; fill:none" points="
  1845.94,1486.45 1845.94,47.2441 
  "></polyline>
<polyline clip-path="url(#clip780)" style="stroke:#000000; stroke-linecap:round; stroke-linejoin:round; stroke-width:4; stroke-opacity:1; fill:none" points="
  156.598,1486.45 2352.76,1486.45 
  "></polyline>
<polyline clip-path="url(#clip780)" style="stroke:#000000; stroke-linecap:round; stroke-linejoin:round; stroke-width:4; stroke-opacity:1; fill:none" points="
  218.754,1486.45 218.754,1467.55 
  "></polyline>
<polyline clip-path="url(#clip780)" style="stroke:#000000; stroke-linecap:round; stroke-linejoin:round; stroke-width:4; stroke-opacity:1; fill:none" points="
  761.148,1486.45 761.148,1467.55 
  "></polyline>
<polyline clip-path="url(#clip780)" style="stroke:#000000; stroke-linecap:round; stroke-linejoin:round; stroke-width:4; stroke-opacity:1; fill:none" points="
  1303.54,1486.45 1303.54,1467.55 
  "></polyline>
<polyline clip-path="url(#clip780)" style="stroke:#000000; stroke-linecap:round; stroke-linejoin:round; stroke-width:4; stroke-opacity:1; fill:none" points="
  1845.94,1486.45 1845.94,1467.55 
  "></polyline>
<path clip-path="url(#clip780)" d="M218.754 1517.37 Q215.143 1517.37 213.314 1520.93 Q211.508 1524.47 211.508 1531.6 Q211.508 1538.71 213.314 1542.27 Q215.143 1545.82 218.754 1545.82 Q222.388 1545.82 224.193 1542.27 Q226.022 1538.71 226.022 1531.6 Q226.022 1524.47 224.193 1520.93 Q222.388 1517.37 218.754 1517.37 M218.754 1513.66 Q224.564 1513.66 227.619 1518.27 Q230.698 1522.85 230.698 1531.6 Q230.698 1540.33 227.619 1544.94 Q224.564 1549.52 218.754 1549.52 Q212.943 1549.52 209.865 1544.94 Q206.809 1540.33 206.809 1531.6 Q206.809 1522.85 209.865 1518.27 Q212.943 1513.66 218.754 1513.66 Z" fill="#000000" fill-rule="evenodd" fill-opacity="1"></path><path clip-path="url(#clip780)" d="M751.53 1544.91 L759.169 1544.91 L759.169 1518.55 L750.859 1520.21 L750.859 1515.95 L759.123 1514.29 L763.799 1514.29 L763.799 1544.91 L771.438 1544.91 L771.438 1548.85 L751.53 1548.85 L751.53 1544.91 Z" fill="#000000" fill-rule="evenodd" fill-opacity="1"></path><path clip-path="url(#clip780)" d="M1298.2 1544.91 L1314.52 1544.91 L1314.52 1548.85 L1292.57 1548.85 L1292.57 1544.91 Q1295.23 1542.16 1299.82 1537.53 Q1304.42 1532.88 1305.6 1531.53 Q1307.85 1529.01 1308.73 1527.27 Q1309.63 1525.51 1309.63 1523.82 Q1309.63 1521.07 1307.69 1519.33 Q1305.77 1517.6 1302.66 1517.6 Q1300.46 1517.6 1298.01 1518.36 Q1295.58 1519.13 1292.8 1520.68 L1292.8 1515.95 Q1295.63 1514.82 1298.08 1514.24 Q1300.53 1513.66 1302.57 1513.66 Q1307.94 1513.66 1311.14 1516.35 Q1314.33 1519.03 1314.33 1523.52 Q1314.33 1525.65 1313.52 1527.57 Q1312.73 1529.47 1310.63 1532.07 Q1310.05 1532.74 1306.95 1535.95 Q1303.84 1539.15 1298.2 1544.91 Z" fill="#000000" fill-rule="evenodd" fill-opacity="1"></path><path clip-path="url(#clip780)" d="M1850.19 1530.21 Q1853.54 1530.93 1855.42 1533.2 Q1857.31 1535.47 1857.31 1538.8 Q1857.31 1543.92 1853.8 1546.72 Q1850.28 1549.52 1843.8 1549.52 Q1841.62 1549.52 1839.31 1549.08 Q1837.01 1548.66 1834.56 1547.81 L1834.56 1543.29 Q1836.5 1544.43 1838.82 1545.01 Q1841.13 1545.58 1843.66 1545.58 Q1848.06 1545.58 1850.35 1543.85 Q1852.66 1542.11 1852.66 1538.8 Q1852.66 1535.75 1850.51 1534.03 Q1848.38 1532.3 1844.56 1532.3 L1840.53 1532.3 L1840.53 1528.45 L1844.75 1528.45 Q1848.19 1528.45 1850.02 1527.09 Q1851.85 1525.7 1851.85 1523.11 Q1851.85 1520.45 1849.95 1519.03 Q1848.08 1517.6 1844.56 1517.6 Q1842.64 1517.6 1840.44 1518.01 Q1838.24 1518.43 1835.6 1519.31 L1835.6 1515.14 Q1838.26 1514.4 1840.58 1514.03 Q1842.92 1513.66 1844.98 1513.66 Q1850.3 1513.66 1853.4 1516.09 Q1856.5 1518.5 1856.5 1522.62 Q1856.5 1525.49 1854.86 1527.48 Q1853.22 1529.45 1850.19 1530.21 Z" fill="#000000" fill-rule="evenodd" fill-opacity="1"></path><polyline clip-path="url(#clip782)" style="stroke:#000000; stroke-linecap:round; stroke-linejoin:round; stroke-width:2; stroke-opacity:0.1; fill:none" points="
  156.598,1445.72 2352.76,1445.72 
  "></polyline>
<polyline clip-path="url(#clip782)" style="stroke:#000000; stroke-linecap:round; stroke-linejoin:round; stroke-width:2; stroke-opacity:0.1; fill:none" points="
  156.598,1130.21 2352.76,1130.21 
  "></polyline>
<polyline clip-path="url(#clip782)" style="stroke:#000000; stroke-linecap:round; stroke-linejoin:round; stroke-width:2; stroke-opacity:0.1; fill:none" points="
  156.598,814.707 2352.76,814.707 
  "></polyline>
<polyline clip-path="url(#clip782)" style="stroke:#000000; stroke-linecap:round; stroke-linejoin:round; stroke-width:2; stroke-opacity:0.1; fill:none" points="
  156.598,499.203 2352.76,499.203 
  "></polyline>
<polyline clip-path="url(#clip782)" style="stroke:#000000; stroke-linecap:round; stroke-linejoin:round; stroke-width:2; stroke-opacity:0.1; fill:none" points="
  156.598,183.699 2352.76,183.699 
  "></polyline>
<polyline clip-path="url(#clip780)" style="stroke:#000000; stroke-linecap:round; stroke-linejoin:round; stroke-width:4; stroke-opacity:1; fill:none" points="
  156.598,1486.45 156.598,47.2441 
  "></polyline>
<polyline clip-path="url(#clip780)" style="stroke:#000000; stroke-linecap:round; stroke-linejoin:round; stroke-width:4; stroke-opacity:1; fill:none" points="
  156.598,1445.72 175.496,1445.72 
  "></polyline>
<polyline clip-path="url(#clip780)" style="stroke:#000000; stroke-linecap:round; stroke-linejoin:round; stroke-width:4; stroke-opacity:1; fill:none" points="
  156.598,1130.21 175.496,1130.21 
  "></polyline>
<polyline clip-path="url(#clip780)" style="stroke:#000000; stroke-linecap:round; stroke-linejoin:round; stroke-width:4; stroke-opacity:1; fill:none" points="
  156.598,814.707 175.496,814.707 
  "></polyline>
<polyline clip-path="url(#clip780)" style="stroke:#000000; stroke-linecap:round; stroke-linejoin:round; stroke-width:4; stroke-opacity:1; fill:none" points="
  156.598,499.203 175.496,499.203 
  "></polyline>
<polyline clip-path="url(#clip780)" style="stroke:#000000; stroke-linecap:round; stroke-linejoin:round; stroke-width:4; stroke-opacity:1; fill:none" points="
  156.598,183.699 175.496,183.699 
  "></polyline>
<path clip-path="url(#clip780)" d="M63.4226 1431.51 Q59.8115 1431.51 57.9828 1435.08 Q56.1773 1438.62 56.1773 1445.75 Q56.1773 1452.86 57.9828 1456.42 Q59.8115 1459.96 63.4226 1459.96 Q67.0569 1459.96 68.8624 1456.42 Q70.6911 1452.86 70.6911 1445.75 Q70.6911 1438.62 68.8624 1435.08 Q67.0569 1431.51 63.4226 1431.51 M63.4226 1427.81 Q69.2328 1427.81 72.2883 1432.42 Q75.367 1437 75.367 1445.75 Q75.367 1454.48 72.2883 1459.08 Q69.2328 1463.67 63.4226 1463.67 Q57.6125 1463.67 54.5338 1459.08 Q51.4782 1454.48 51.4782 1445.75 Q51.4782 1437 54.5338 1432.42 Q57.6125 1427.81 63.4226 1427.81 Z" fill="#000000" fill-rule="evenodd" fill-opacity="1"></path><path clip-path="url(#clip780)" d="M83.5845 1457.12 L88.4688 1457.12 L88.4688 1463 L83.5845 1463 L83.5845 1457.12 Z" fill="#000000" fill-rule="evenodd" fill-opacity="1"></path><path clip-path="url(#clip780)" d="M108.654 1431.51 Q105.043 1431.51 103.214 1435.08 Q101.409 1438.62 101.409 1445.75 Q101.409 1452.86 103.214 1456.42 Q105.043 1459.96 108.654 1459.96 Q112.288 1459.96 114.094 1456.42 Q115.922 1452.86 115.922 1445.75 Q115.922 1438.62 114.094 1435.08 Q112.288 1431.51 108.654 1431.51 M108.654 1427.81 Q114.464 1427.81 117.52 1432.42 Q120.598 1437 120.598 1445.75 Q120.598 1454.48 117.52 1459.08 Q114.464 1463.67 108.654 1463.67 Q102.844 1463.67 99.765 1459.08 Q96.7095 1454.48 96.7095 1445.75 Q96.7095 1437 99.765 1432.42 Q102.844 1427.81 108.654 1427.81 Z" fill="#000000" fill-rule="evenodd" fill-opacity="1"></path><path clip-path="url(#clip780)" d="M65.0198 1116.01 Q61.4087 1116.01 59.58 1119.57 Q57.7745 1123.12 57.7745 1130.25 Q57.7745 1137.35 59.58 1140.92 Q61.4087 1144.46 65.0198 1144.46 Q68.6541 1144.46 70.4596 1140.92 Q72.2883 1137.35 72.2883 1130.25 Q72.2883 1123.12 70.4596 1119.57 Q68.6541 1116.01 65.0198 1116.01 M65.0198 1112.31 Q70.83 1112.31 73.8855 1116.91 Q76.9642 1121.5 76.9642 1130.25 Q76.9642 1138.97 73.8855 1143.58 Q70.83 1148.16 65.0198 1148.16 Q59.2097 1148.16 56.131 1143.58 Q53.0754 1138.97 53.0754 1130.25 Q53.0754 1121.5 56.131 1116.91 Q59.2097 1112.31 65.0198 1112.31 Z" fill="#000000" fill-rule="evenodd" fill-opacity="1"></path><path clip-path="url(#clip780)" d="M85.1818 1141.61 L90.066 1141.61 L90.066 1147.49 L85.1818 1147.49 L85.1818 1141.61 Z" fill="#000000" fill-rule="evenodd" fill-opacity="1"></path><path clip-path="url(#clip780)" d="M104.279 1143.56 L120.598 1143.56 L120.598 1147.49 L98.6539 1147.49 L98.6539 1143.56 Q101.316 1140.8 105.899 1136.17 Q110.506 1131.52 111.686 1130.18 Q113.932 1127.65 114.811 1125.92 Q115.714 1124.16 115.714 1122.47 Q115.714 1119.71 113.77 1117.98 Q111.848 1116.24 108.746 1116.24 Q106.547 1116.24 104.094 1117.01 Q101.663 1117.77 98.8854 1119.32 L98.8854 1114.6 Q101.709 1113.46 104.163 1112.89 Q106.617 1112.31 108.654 1112.31 Q114.024 1112.31 117.219 1114.99 Q120.413 1117.68 120.413 1122.17 Q120.413 1124.3 119.603 1126.22 Q118.816 1128.12 116.709 1130.71 Q116.131 1131.38 113.029 1134.6 Q109.927 1137.79 104.279 1143.56 Z" fill="#000000" fill-rule="evenodd" fill-opacity="1"></path><path clip-path="url(#clip780)" d="M62.9365 800.506 Q59.3254 800.506 57.4967 804.071 Q55.6912 807.612 55.6912 814.742 Q55.6912 821.848 57.4967 825.413 Q59.3254 828.955 62.9365 828.955 Q66.5707 828.955 68.3763 825.413 Q70.205 821.848 70.205 814.742 Q70.205 807.612 68.3763 804.071 Q66.5707 800.506 62.9365 800.506 M62.9365 796.802 Q68.7467 796.802 71.8022 801.409 Q74.8809 805.992 74.8809 814.742 Q74.8809 823.469 71.8022 828.075 Q68.7467 832.659 62.9365 832.659 Q57.1264 832.659 54.0477 828.075 Q50.9921 823.469 50.9921 814.742 Q50.9921 805.992 54.0477 801.409 Q57.1264 796.802 62.9365 796.802 Z" fill="#000000" fill-rule="evenodd" fill-opacity="1"></path><path clip-path="url(#clip780)" d="M83.0984 826.108 L87.9827 826.108 L87.9827 831.987 L83.0984 831.987 L83.0984 826.108 Z" fill="#000000" fill-rule="evenodd" fill-opacity="1"></path><path clip-path="url(#clip780)" d="M111.015 801.501 L99.2095 819.95 L111.015 819.95 L111.015 801.501 M109.788 797.427 L115.668 797.427 L115.668 819.95 L120.598 819.95 L120.598 823.839 L115.668 823.839 L115.668 831.987 L111.015 831.987 L111.015 823.839 L95.4132 823.839 L95.4132 819.325 L109.788 797.427 Z" fill="#000000" fill-rule="evenodd" fill-opacity="1"></path><path clip-path="url(#clip780)" d="M63.2606 485.002 Q59.6495 485.002 57.8208 488.566 Q56.0152 492.108 56.0152 499.238 Q56.0152 506.344 57.8208 509.909 Q59.6495 513.451 63.2606 513.451 Q66.8948 513.451 68.7004 509.909 Q70.5291 506.344 70.5291 499.238 Q70.5291 492.108 68.7004 488.566 Q66.8948 485.002 63.2606 485.002 M63.2606 481.298 Q69.0707 481.298 72.1263 485.904 Q75.205 490.488 75.205 499.238 Q75.205 507.965 72.1263 512.571 Q69.0707 517.154 63.2606 517.154 Q57.4504 517.154 54.3717 512.571 Q51.3162 507.965 51.3162 499.238 Q51.3162 490.488 54.3717 485.904 Q57.4504 481.298 63.2606 481.298 Z" fill="#000000" fill-rule="evenodd" fill-opacity="1"></path><path clip-path="url(#clip780)" d="M83.4225 510.603 L88.3067 510.603 L88.3067 516.483 L83.4225 516.483 L83.4225 510.603 Z" fill="#000000" fill-rule="evenodd" fill-opacity="1"></path><path clip-path="url(#clip780)" d="M109.071 497.34 Q105.922 497.34 104.071 499.492 Q102.242 501.645 102.242 505.395 Q102.242 509.122 104.071 511.298 Q105.922 513.451 109.071 513.451 Q112.219 513.451 114.047 511.298 Q115.899 509.122 115.899 505.395 Q115.899 501.645 114.047 499.492 Q112.219 497.34 109.071 497.34 M118.353 482.687 L118.353 486.946 Q116.594 486.113 114.788 485.673 Q113.006 485.233 111.246 485.233 Q106.617 485.233 104.163 488.358 Q101.733 491.483 101.385 497.803 Q102.751 495.789 104.811 494.724 Q106.871 493.636 109.348 493.636 Q114.557 493.636 117.566 496.807 Q120.598 499.955 120.598 505.395 Q120.598 510.719 117.45 513.937 Q114.302 517.154 109.071 517.154 Q103.075 517.154 99.9039 512.571 Q96.7326 507.965 96.7326 499.238 Q96.7326 491.043 100.621 486.182 Q104.51 481.298 111.061 481.298 Q112.82 481.298 114.603 481.645 Q116.408 481.992 118.353 482.687 Z" fill="#000000" fill-rule="evenodd" fill-opacity="1"></path><path clip-path="url(#clip780)" d="M63.5152 169.497 Q59.9041 169.497 58.0754 173.062 Q56.2699 176.604 56.2699 183.733 Q56.2699 190.84 58.0754 194.405 Q59.9041 197.946 63.5152 197.946 Q67.1494 197.946 68.955 194.405 Q70.7837 190.84 70.7837 183.733 Q70.7837 176.604 68.955 173.062 Q67.1494 169.497 63.5152 169.497 M63.5152 165.794 Q69.3254 165.794 72.3809 170.4 Q75.4596 174.984 75.4596 183.733 Q75.4596 192.46 72.3809 197.067 Q69.3254 201.65 63.5152 201.65 Q57.7051 201.65 54.6264 197.067 Q51.5708 192.46 51.5708 183.733 Q51.5708 174.984 54.6264 170.4 Q57.7051 165.794 63.5152 165.794 Z" fill="#000000" fill-rule="evenodd" fill-opacity="1"></path><path clip-path="url(#clip780)" d="M83.6771 195.099 L88.5614 195.099 L88.5614 200.979 L83.6771 200.979 L83.6771 195.099 Z" fill="#000000" fill-rule="evenodd" fill-opacity="1"></path><path clip-path="url(#clip780)" d="M108.746 184.567 Q105.413 184.567 103.492 186.349 Q101.594 188.132 101.594 191.257 Q101.594 194.382 103.492 196.164 Q105.413 197.946 108.746 197.946 Q112.08 197.946 114.001 196.164 Q115.922 194.358 115.922 191.257 Q115.922 188.132 114.001 186.349 Q112.103 184.567 108.746 184.567 M104.071 182.576 Q101.061 181.835 99.3715 179.775 Q97.7048 177.715 97.7048 174.752 Q97.7048 170.609 100.645 168.201 Q103.608 165.794 108.746 165.794 Q113.908 165.794 116.848 168.201 Q119.788 170.609 119.788 174.752 Q119.788 177.715 118.098 179.775 Q116.432 181.835 113.445 182.576 Q116.825 183.363 118.7 185.655 Q120.598 187.946 120.598 191.257 Q120.598 196.28 117.52 198.965 Q114.464 201.65 108.746 201.65 Q103.029 201.65 99.9502 198.965 Q96.8947 196.28 96.8947 191.257 Q96.8947 187.946 98.7928 185.655 Q100.691 183.363 104.071 182.576 M102.358 175.192 Q102.358 177.877 104.024 179.382 Q105.714 180.886 108.746 180.886 Q111.756 180.886 113.445 179.382 Q115.158 177.877 115.158 175.192 Q115.158 172.507 113.445 171.002 Q111.756 169.497 108.746 169.497 Q105.714 169.497 104.024 171.002 Q102.358 172.507 102.358 175.192 Z" fill="#000000" fill-rule="evenodd" fill-opacity="1"></path><polyline clip-path="url(#clip782)" style="stroke:#009af9; stroke-linecap:round; stroke-linejoin:round; stroke-width:4; stroke-opacity:1; fill:none" points="
  227.778,1383.97 238.692,1331.36 249.607,1272.32 260.521,1208.37 271.436,1140.65 282.35,1073.5 293.264,1007.35 304.179,942.819 315.093,884.895 326.008,832.61 
  336.922,781.489 347.836,732.782 358.751,686.558 369.665,640.921 380.58,592.919 391.494,545.072 402.408,506.77 413.323,472.479 424.237,427.064 435.152,379.809 
  446.066,341.455 456.98,306.787 467.895,277.311 478.809,255.107 489.724,232.892 500.638,203.298 511.553,173.717 522.467,152.563 533.381,130.06 544.296,106.81 
  555.21,97.2244 566.125,92.8692 577.039,87.9763 587.953,89.3617 598.868,92.7998 609.782,102.244 620.697,109.594 631.611,105.082 642.525,104.547 653.44,122.494 
  664.354,141.431 675.269,141.257 686.183,136.373 697.097,145.131 708.012,168.169 718.926,195.713 729.841,217.99 740.755,240.914 751.669,266.234 762.584,294.015 
  773.498,324.292 784.413,349.2 795.327,369.985 806.241,394.891 817.156,423.546 828.07,453.491 838.985,485.681 849.899,514.523 860.813,537.686 871.728,562.72 
  882.642,592.827 893.557,623.207 904.471,649.1 915.385,671.134 926.3,691.047 937.214,714.836 948.129,744.296 959.043,772.391 969.958,797.357 980.872,824.253 
  991.786,851.417 1002.7,873.958 1013.62,898.036 1024.53,925.989 1035.44,951.772 1046.36,974.993 1057.27,998.293 1068.19,1021.87 1079.1,1044.83 1090.02,1065.36 
  1100.93,1081.54 1111.84,1096.01 1122.76,1111.86 1133.67,1128.24 1144.59,1148.08 1155.5,1169.26 1166.42,1184.66 1177.33,1195.75 1188.25,1207.79 1199.16,1222.97 
  1210.07,1240.32 1220.99,1257.6 1231.9,1271.76 1242.82,1281.55 1253.73,1288.17 1264.65,1296.19 1275.56,1307.11 1286.48,1317.43 1297.39,1325.91 1308.3,1334.5 
  1319.22,1343.05 1330.13,1349.28 1341.05,1353.87 1351.96,1359.73 1362.88,1366.84 1373.79,1372.89 1384.7,1377.51 1395.62,1381.79 1406.53,1385.94 1417.45,1390.1 
  1428.36,1394.75 1439.28,1399.45 1450.19,1403.41 1461.11,1406.79 1472.02,1410.46 1482.93,1413.78 1493.85,1416.22 1504.76,1418.79 1515.68,1421.68 1526.59,1424.41 
  1537.51,1426.81 1548.42,1428.7 1559.34,1429.86 1570.25,1430.82 1581.16,1432.36 1592.08,1434.38 1602.99,1435.8 1613.91,1436.31 1624.82,1436.36 1635.74,1436.53 
  1646.65,1437.15 1657.57,1437.94 1668.48,1438.8 1679.39,1439.88 1690.31,1440.66 1701.22,1440.93 1712.14,1440.92 1723.05,1440.86 1733.97,1441.38 1744.88,1442.2 
  1755.79,1442.59 1766.71,1442.74 1777.62,1443.02 1788.54,1443.53 1799.45,1444.13 1810.37,1444.4 1821.28,1444.32 1832.2,1444.27 1843.11,1444.5 1854.02,1444.8 
  1864.94,1444.9 1875.85,1444.81 1886.77,1444.76 1897.68,1444.86 1908.6,1445.06 1919.51,1445.19 1930.43,1445.22 1941.34,1445.25 1952.25,1445.3 1963.17,1445.38 
  1974.08,1445.47 1985,1445.49 1995.91,1445.42 2006.83,1445.36 2017.74,1445.34 2028.65,1445.34 2039.57,1445.34 2050.48,1445.35 2061.4,1445.45 2072.31,1445.59 
  2083.23,1445.66 2094.14,1445.65 2105.06,1445.64 2115.97,1445.67 2126.88,1445.69 2137.8,1445.69 2148.71,1445.7 2159.63,1445.71 2170.54,1445.72 2181.46,1445.72 
  2192.37,1445.72 2203.29,1445.72 2214.2,1445.72 2225.11,1445.71 2236.03,1445.72 2246.94,1445.71 2257.86,1445.72 2268.77,1445.71 2279.69,1445.71 2290.6,1445.71 
  
  "></polyline>
<polyline clip-path="url(#clip782)" style="stroke:#e26f46; stroke-linecap:round; stroke-linejoin:round; stroke-width:4; stroke-opacity:1; fill:none" points="
  218.754,1445.72 220.382,1436.24 222.011,1426.77 223.64,1417.29 225.269,1407.82 226.898,1398.35 228.527,1388.89 230.155,1379.42 231.784,1369.96 233.413,1360.51 
  235.042,1351.06 236.671,1341.61 238.299,1332.17 239.928,1322.73 241.557,1313.31 243.186,1303.88 244.815,1294.47 246.443,1285.07 248.072,1275.67 249.701,1266.28 
  251.33,1256.91 252.959,1247.54 254.588,1238.18 256.216,1228.84 257.845,1219.5 259.474,1210.18 261.103,1200.87 262.732,1191.58 264.36,1182.3 265.989,1173.03 
  267.618,1163.78 269.247,1154.54 270.876,1145.32 272.504,1136.11 274.133,1126.92 275.762,1117.75 277.391,1108.59 279.02,1099.46 280.649,1090.34 282.277,1081.24 
  283.906,1072.16 285.535,1063.1 287.164,1054.06 288.793,1045.04 290.421,1036.05 292.05,1027.07 293.679,1018.12 295.308,1009.19 296.937,1000.29 298.565,991.404 
  300.194,982.546 301.823,973.713 303.452,964.905 305.081,956.122 306.71,947.366 308.338,938.636 309.967,929.933 311.596,921.257 313.225,912.609 314.854,903.99 
  316.482,895.399 318.111,886.837 319.74,878.305 321.369,869.803 322.998,861.331 324.626,852.89 326.255,844.48 327.884,836.102 329.513,827.756 331.142,819.443 
  332.771,811.162 334.399,802.915 336.028,794.702 337.657,786.522 339.286,778.377 340.915,770.268 342.543,762.193 344.172,754.154 345.801,746.151 347.43,738.185 
  349.059,730.256 350.687,722.363 352.316,714.509 353.945,706.692 355.574,698.914 357.203,691.174 358.832,683.473 360.46,675.812 362.089,668.191 363.718,660.609 
  365.347,653.068 366.976,645.568 368.604,638.109 370.233,630.692 371.862,623.316 373.491,615.983 375.12,608.692 376.748,601.443 378.377,594.238 380.006,587.076 
  381.635,579.958 383.264,572.884 384.893,565.855 386.521,558.87 388.15,551.929 389.779,545.035 391.408,538.185 393.037,531.382 394.665,524.624 396.294,517.913 
  397.923,511.248 399.552,504.63 401.181,498.06 402.809,491.537 404.438,485.061 406.067,478.634 407.696,472.254 409.325,465.923 410.954,459.641 412.582,453.407 
  414.211,447.223 415.84,441.088 417.469,435.003 419.098,428.967 420.726,422.981 422.355,417.046 423.984,411.161 425.613,405.327 427.242,399.543 428.87,393.811 
  430.499,388.129 432.128,382.5 433.757,376.921 435.386,371.395 437.015,365.92 438.643,360.498 440.272,355.128 441.901,349.81 443.53,344.545 445.159,339.333 
  446.787,334.173 448.416,329.067 450.045,324.014 451.674,319.014 453.303,314.068 454.931,309.175 456.56,304.336 458.189,299.551 459.818,294.82 461.447,290.142 
  463.076,285.52 464.704,280.951 466.333,276.437 467.962,271.977 469.591,267.571 471.22,263.221 472.848,258.925 474.477,254.684 476.106,250.498 477.735,246.367 
  479.364,242.291 480.992,238.27 482.621,234.304 484.25,230.393 485.879,226.538 487.508,222.737 489.137,218.993 490.765,215.303 492.394,211.669 494.023,208.091 
  495.652,204.568 497.281,201.1 498.909,197.688 500.538,194.331 502.167,191.03 503.796,187.785 505.425,184.595 507.053,181.46 508.682,178.381 510.311,175.358 
  511.94,172.39 513.569,169.477 515.198,166.62 516.826,163.819 518.455,161.073 520.084,158.382 521.713,155.746 523.342,153.166 524.97,150.641 526.599,148.171 
  528.228,145.757 529.857,143.397 531.486,141.093 533.114,138.843 534.743,136.648 536.372,134.508 538.001,132.423 539.63,130.392 541.259,128.416 542.887,126.495 
  544.516,124.628 546.145,122.815 547.774,121.056 549.403,119.351 551.031,117.701 552.66,116.104 554.289,114.561 555.918,113.072 557.547,111.636 559.175,110.254 
  560.804,108.925 562.433,107.649 564.062,106.426 565.691,105.256 567.32,104.139 568.948,103.074 570.577,102.062 572.206,101.102 573.835,100.194 575.464,99.3383 
  577.092,98.5344 578.721,97.7822 580.35,97.0815 581.979,96.4322 583.608,95.834 585.237,95.2869 586.865,94.7905 588.494,94.3448 590.123,93.9496 591.752,93.6047 
  593.381,93.3099 595.009,93.0649 596.638,92.8697 598.267,92.724 599.896,92.6276 601.525,92.5803 603.153,92.582 604.782,92.6323 606.411,92.7311 608.04,92.8782 
  609.669,93.0733 611.298,93.3163 612.926,93.6069 614.555,93.945 616.184,94.3302 617.813,94.7623 619.442,95.2412 621.07,95.7665 622.699,96.3381 624.328,96.9557 
  625.957,97.6191 627.586,98.3281 629.214,99.0823 630.843,99.8815 632.472,100.726 634.101,101.614 635.73,102.547 637.359,103.524 638.987,104.545 640.616,105.609 
  642.245,106.717 643.874,107.867 645.503,109.06 647.131,110.296 648.76,111.574 650.389,112.894 652.018,114.256 653.647,115.658 655.275,117.103 656.904,118.588 
  658.533,120.113 660.162,121.679 661.791,123.285 663.42,124.93 665.048,126.615 666.677,128.339 668.306,130.102 669.935,131.904 671.564,133.744 673.192,135.622 
  674.821,137.537 676.45,139.49 678.079,141.48 679.708,143.507 681.336,145.571 682.965,147.671 684.594,149.806 686.223,151.978 687.852,154.184 689.481,156.426 
  691.109,158.702 692.738,161.013 694.367,163.358 695.996,165.737 697.625,168.149 699.253,170.595 700.882,173.073 702.511,175.584 704.14,178.128 705.769,180.703 
  707.397,183.31 709.026,185.948 710.655,188.617 712.284,191.317 713.913,194.048 715.542,196.808 717.17,199.598 718.799,202.418 720.428,205.267 722.057,208.145 
  723.686,211.051 725.314,213.986 726.943,216.948 728.572,219.938 730.201,222.955 731.83,225.999 733.458,229.07 735.087,232.167 736.716,235.29 738.345,238.439 
  739.974,241.613 741.603,244.812 743.231,248.036 744.86,251.285 746.489,254.557 748.118,257.853 749.747,261.173 751.375,264.516 753.004,267.881 754.633,271.269 
  756.262,274.68 757.891,278.112 759.519,281.565 761.148,285.04 762.777,288.536 764.406,292.053 766.035,295.59 767.664,299.147 769.292,302.723 770.921,306.319 
  772.55,309.934 774.179,313.568 775.808,317.22 777.436,320.89 779.065,324.578 780.694,328.284 782.323,332.006 783.952,335.746 785.58,339.502 787.209,343.275 
  788.838,347.063 790.467,350.868 792.096,354.687 793.725,358.522 795.353,362.371 796.982,366.235 798.611,370.113 800.24,374.004 801.869,377.91 803.497,381.828 
  805.126,385.76 806.755,389.704 808.384,393.661 810.013,397.629 811.641,401.61 813.27,405.602 814.899,409.605 816.528,413.619 818.157,417.644 819.786,421.679 
  821.414,425.724 823.043,429.779 824.672,433.843 826.301,437.917 827.93,441.999 829.558,446.09 831.187,450.19 832.816,454.297 834.445,458.413 836.074,462.535 
  837.702,466.666 839.331,470.803 840.96,474.947 842.589,479.097 844.218,483.253 845.847,487.416 847.475,491.584 849.104,495.757 850.733,499.936 852.362,504.119 
  853.991,508.307 855.619,512.499 857.248,516.696 858.877,520.896 860.506,525.1 862.135,529.307 863.763,533.517 865.392,537.73 867.021,541.945 868.65,546.163 
  870.279,550.383 871.908,554.605 873.536,558.829 875.165,563.054 876.794,567.279 878.423,571.506 880.052,575.734 881.68,579.962 883.309,584.19 884.938,588.418 
  886.567,592.646 888.196,596.873 889.824,601.1 891.453,605.325 893.082,609.55 894.711,613.773 896.34,617.995 897.969,622.214 899.597,626.432 901.226,630.648 
  902.855,634.861 904.484,639.071 906.113,643.278 907.741,647.483 909.37,651.684 910.999,655.882 912.628,660.076 914.257,664.266 915.885,668.452 917.514,672.634 
  919.143,676.811 920.772,680.984 922.401,685.152 924.03,689.315 925.658,693.472 927.287,697.625 928.916,701.771 930.545,705.912 932.174,710.047 933.802,714.176 
  935.431,718.299 937.06,722.415 938.689,726.525 940.318,730.628 941.946,734.723 943.575,738.812 945.204,742.894 946.833,746.968 948.462,751.034 950.091,755.093 
  951.719,759.143 953.348,763.186 954.977,767.22 956.606,771.246 958.235,775.264 959.863,779.272 961.492,783.272 963.121,787.263 964.75,791.245 966.379,795.218 
  968.007,799.181 969.636,803.135 971.265,807.079 972.894,811.013 974.523,814.938 976.152,818.852 977.78,822.756 979.409,826.65 981.038,830.533 982.667,834.406 
  984.296,838.269 985.924,842.12 987.553,845.961 989.182,849.79 990.811,853.608 992.44,857.416 994.068,861.211 995.697,864.996 997.326,868.769 998.955,872.53 
  1000.58,876.279 1002.21,880.017 1003.84,883.742 1005.47,887.456 1007.1,891.157 1008.73,894.846 1010.36,898.523 1011.99,902.187 1013.61,905.839 1015.24,909.478 
  1016.87,913.104 1018.5,916.718 1020.13,920.319 1021.76,923.907 1023.39,927.482 1025.02,931.043 1026.64,934.592 1028.27,938.127 1029.9,941.649 1031.53,945.158 
  1033.16,948.653 1034.79,952.135 1036.42,955.603 1038.05,959.057 1039.68,962.498 1041.3,965.925 1042.93,969.338 1044.56,972.737 1046.19,976.122 1047.82,979.493 
  1049.45,982.85 1051.08,986.193 1052.71,989.522 1054.33,992.837 1055.96,996.137 1057.59,999.423 1059.22,1002.69 1060.85,1005.95 1062.48,1009.19 1064.11,1012.42 
  1065.74,1015.64 1067.37,1018.84 1068.99,1022.02 1070.62,1025.19 1072.25,1028.35 1073.88,1031.49 1075.51,1034.61 1077.14,1037.72 1078.77,1040.82 1080.4,1043.9 
  1082.02,1046.97 1083.65,1050.02 1085.28,1053.06 1086.91,1056.08 1088.54,1059.09 1090.17,1062.08 1091.8,1065.06 1093.43,1068.02 1095.05,1070.97 1096.68,1073.9 
  1098.31,1076.82 1099.94,1079.72 1101.57,1082.6 1103.2,1085.48 1104.83,1088.33 1106.46,1091.18 1108.09,1094 1109.71,1096.81 1111.34,1099.61 1112.97,1102.39 
  1114.6,1105.16 1116.23,1107.91 1117.86,1110.65 1119.49,1113.37 1121.12,1116.08 1122.74,1118.77 1124.37,1121.44 1126,1124.1 1127.63,1126.75 1129.26,1129.38 
  1130.89,1132 1132.52,1134.6 1134.15,1137.18 1135.78,1139.75 1137.4,1142.31 1139.03,1144.85 1140.66,1147.38 1142.29,1149.89 1143.92,1152.38 1145.55,1154.87 
  1147.18,1157.33 1148.81,1159.78 1150.43,1162.22 1152.06,1164.64 1153.69,1167.05 1155.32,1169.44 1156.95,1171.82 1158.58,1174.18 1160.21,1176.53 1161.84,1178.86 
  1163.47,1181.18 1165.09,1183.48 1166.72,1185.77 1168.35,1188.05 1169.98,1190.31 1171.61,1192.55 1173.24,1194.78 1174.87,1197 1176.5,1199.2 1178.12,1201.39 
  1179.75,1203.56 1181.38,1205.72 1183.01,1207.87 1184.64,1210 1186.27,1212.12 1187.9,1214.22 1189.53,1216.31 1191.15,1218.38 1192.78,1220.44 1194.41,1222.49 
  1196.04,1224.52 1197.67,1226.54 1199.3,1228.54 1200.93,1230.53 1202.56,1232.51 1204.19,1234.47 1205.81,1236.42 1207.44,1238.35 1209.07,1240.28 1210.7,1242.18 
  1212.33,1244.08 1213.96,1245.96 1215.59,1247.83 1217.22,1249.68 1218.84,1251.52 1220.47,1253.35 1222.1,1255.17 1223.73,1256.97 1225.36,1258.75 1226.99,1260.53 
  1228.62,1262.29 1230.25,1264.04 1231.88,1265.78 1233.5,1267.5 1235.13,1269.21 1236.76,1270.91 1238.39,1272.59 1240.02,1274.26 1241.65,1275.92 1243.28,1277.57 
  1244.91,1279.2 1246.53,1280.82 1248.16,1282.43 1249.79,1284.03 1251.42,1285.61 1253.05,1287.19 1254.68,1288.75 1256.31,1290.29 1257.94,1291.83 1259.56,1293.35 
  1261.19,1294.86 1262.82,1296.36 1264.45,1297.85 1266.08,1299.33 1267.71,1300.79 1269.34,1302.24 1270.97,1303.68 1272.6,1305.11 1274.22,1306.53 1275.85,1307.94 
  1277.48,1309.33 1279.11,1310.72 1280.74,1312.09 1282.37,1313.45 1284,1314.8 1285.63,1316.14 1287.25,1317.46 1288.88,1318.78 1290.51,1320.09 1292.14,1321.38 
  1293.77,1322.66 1295.4,1323.94 1297.03,1325.2 1298.66,1326.45 1300.29,1327.69 1301.91,1328.92 1303.54,1330.14 1305.17,1331.35 1306.8,1332.55 1308.43,1333.74 
  1310.06,1334.92 1311.69,1336.09 1313.32,1337.25 1314.94,1338.39 1316.57,1339.53 1318.2,1340.66 1319.83,1341.78 1321.46,1342.89 1323.09,1343.99 1324.72,1345.08 
  1326.35,1346.15 1327.98,1347.22 1329.6,1348.28 1331.23,1349.34 1332.86,1350.38 1334.49,1351.41 1336.12,1352.43 1337.75,1353.45 1339.38,1354.45 1341.01,1355.45 
  1342.63,1356.43 1344.26,1357.41 1345.89,1358.38 1347.52,1359.34 1349.15,1360.29 1350.78,1361.23 1352.41,1362.16 1354.04,1363.09 1355.66,1364 1357.29,1364.91 
  1358.92,1365.81 1360.55,1366.7 1362.18,1367.58 1363.81,1368.46 1365.44,1369.32 1367.07,1370.18 1368.7,1371.03 1370.32,1371.87 1371.95,1372.7 1373.58,1373.53 
  1375.21,1374.34 1376.84,1375.15 1378.47,1375.96 1380.1,1376.75 1381.73,1377.54 1383.35,1378.31 1384.98,1379.09 1386.61,1379.85 1388.24,1380.61 1389.87,1381.35 
  1391.5,1382.1 1393.13,1382.83 1394.76,1383.56 1396.39,1384.28 1398.01,1384.99 1399.64,1385.7 1401.27,1386.39 1402.9,1387.09 1404.53,1387.77 1406.16,1388.45 
  1407.79,1389.12 1409.42,1389.78 1411.04,1390.44 1412.67,1391.09 1414.3,1391.74 1415.93,1392.37 1417.56,1393.01 1419.19,1393.63 1420.82,1394.25 1422.45,1394.86 
  1424.08,1395.47 1425.7,1396.07 1427.33,1396.66 1428.96,1397.25 1430.59,1397.83 1432.22,1398.4 1433.85,1398.97 1435.48,1399.54 1437.11,1400.09 1438.73,1400.65 
  1440.36,1401.19 1441.99,1401.73 1443.62,1402.27 1445.25,1402.79 1446.88,1403.32 1448.51,1403.83 1450.14,1404.35 1451.76,1404.85 1453.39,1405.35 1455.02,1405.85 
  1456.65,1406.34 1458.28,1406.83 1459.91,1407.31 1461.54,1407.78 1463.17,1408.25 1464.8,1408.72 1466.42,1409.18 1468.05,1409.63 1469.68,1410.08 1471.31,1410.52 
  1472.94,1410.96 1474.57,1411.4 1476.2,1411.83 1477.83,1412.26 1479.45,1412.68 1481.08,1413.09 1482.71,1413.5 1484.34,1413.91 1485.97,1414.31 1487.6,1414.71 
  1489.23,1415.11 1490.86,1415.49 1492.49,1415.88 1494.11,1416.26 1495.74,1416.64 1497.37,1417.01 1499,1417.38 1500.63,1417.74 1502.26,1418.1 1503.89,1418.45 
  1505.52,1418.81 1507.14,1419.15 1508.77,1419.5 1510.4,1419.84 1512.03,1420.17 1513.66,1420.5 1515.29,1420.83 1516.92,1421.16 1518.55,1421.48 1520.18,1421.79 
  1521.8,1422.11 1523.43,1422.41 1525.06,1422.72 1526.69,1423.02 1528.32,1423.32 1529.95,1423.62 1531.58,1423.91 1533.21,1424.2 1534.83,1424.48 1536.46,1424.76 
  1538.09,1425.04 1539.72,1425.32 1541.35,1425.59 1542.98,1425.86 1544.61,1426.12 1546.24,1426.38 1547.86,1426.64 1549.49,1426.9 1551.12,1427.15 1552.75,1427.4 
  1554.38,1427.65 1556.01,1427.89 1557.64,1428.13 1559.27,1428.37 1560.9,1428.6 1562.52,1428.84 1564.15,1429.07 1565.78,1429.29 1567.41,1429.52 1569.04,1429.74 
  1570.67,1429.95 1572.3,1430.17 1573.93,1430.38 1575.55,1430.59 1577.18,1430.8 1578.81,1431.01 1580.44,1431.21 1582.07,1431.41 1583.7,1431.61 1585.33,1431.8 
  1586.96,1432 1588.59,1432.19 1590.21,1432.37 1591.84,1432.56 1593.47,1432.74 1595.1,1432.92 1596.73,1433.1 1598.36,1433.28 1599.99,1433.45 1601.62,1433.62 
  1603.24,1433.79 1604.87,1433.96 1606.5,1434.13 1608.13,1434.29 1609.76,1434.45 1611.39,1434.61 1613.02,1434.77 1614.65,1434.92 1616.27,1435.08 1617.9,1435.23 
  1619.53,1435.38 1621.16,1435.53 1622.79,1435.67 1624.42,1435.81 1626.05,1435.96 1627.68,1436.1 1629.31,1436.23 1630.93,1436.37 1632.56,1436.5 1634.19,1436.64 
  1635.82,1436.77 1637.45,1436.9 1639.08,1437.03 1640.71,1437.15 1642.34,1437.28 1643.96,1437.4 1645.59,1437.52 1647.22,1437.64 1648.85,1437.76 1650.48,1437.87 
  1652.11,1437.99 1653.74,1438.1 1655.37,1438.21 1657,1438.32 1658.62,1438.43 1660.25,1438.54 1661.88,1438.64 1663.51,1438.75 1665.14,1438.85 1666.77,1438.95 
  1668.4,1439.05 1670.03,1439.15 1671.65,1439.25 1673.28,1439.34 1674.91,1439.44 1676.54,1439.53 1678.17,1439.63 1679.8,1439.72 1681.43,1439.81 1683.06,1439.89 
  1684.69,1439.98 1686.31,1440.07 1687.94,1440.15 1689.57,1440.24 1691.2,1440.32 1692.83,1440.4 1694.46,1440.48 1696.09,1440.56 1697.72,1440.64 1699.34,1440.72 
  1700.97,1440.79 1702.6,1440.87 1704.23,1440.94 1705.86,1441.01 1707.49,1441.08 1709.12,1441.16 1710.75,1441.23 1712.37,1441.29 1714,1441.36 1715.63,1441.43 
  1717.26,1441.49 1718.89,1441.56 1720.52,1441.62 1722.15,1441.69 1723.78,1441.75 1725.41,1441.81 1727.03,1441.87 1728.66,1441.93 1730.29,1441.99 1731.92,1442.05 
  1733.55,1442.1 1735.18,1442.16 1736.81,1442.22 1738.44,1442.27 1740.06,1442.32 1741.69,1442.38 1743.32,1442.43 1744.95,1442.48 1746.58,1442.53 1748.21,1442.58 
  1749.84,1442.63 1751.47,1442.68 1753.1,1442.73 1754.72,1442.78 1756.35,1442.82 1757.98,1442.87 1759.61,1442.91 1761.24,1442.96 1762.87,1443 1764.5,1443.04 
  1766.13,1443.09 1767.75,1443.13 1769.38,1443.17 1771.01,1443.21 1772.64,1443.25 1774.27,1443.29 1775.9,1443.33 1777.53,1443.37 1779.16,1443.41 1780.79,1443.44 
  1782.41,1443.48 1784.04,1443.52 1785.67,1443.55 1787.3,1443.59 1788.93,1443.62 1790.56,1443.66 1792.19,1443.69 1793.82,1443.72 1795.44,1443.75 1797.07,1443.79 
  1798.7,1443.82 1800.33,1443.85 1801.96,1443.88 1803.59,1443.91 1805.22,1443.94 1806.85,1443.97 1808.47,1444 1810.1,1444.03 1811.73,1444.05 1813.36,1444.08 
  1814.99,1444.11 1816.62,1444.13 1818.25,1444.16 1819.88,1444.19 1821.51,1444.21 1823.13,1444.24 1824.76,1444.26 1826.39,1444.28 1828.02,1444.31 1829.65,1444.33 
  1831.28,1444.36 1832.91,1444.38 1834.54,1444.4 1836.16,1444.42 1837.79,1444.44 1839.42,1444.47 1841.05,1444.49 1842.68,1444.51 1844.31,1444.53 1845.94,1444.55 
  
  "></polyline>
<path clip-path="url(#clip780)" d="
M1565.98 250.738 L2279.55 250.738 L2279.55 95.2176 L1565.98 95.2176  Z
  " fill="#ffffff" fill-rule="evenodd" fill-opacity="1"></path>
<polyline clip-path="url(#clip780)" style="stroke:#000000; stroke-linecap:round; stroke-linejoin:round; stroke-width:4; stroke-opacity:1; fill:none" points="
  1565.98,250.738 2279.55,250.738 2279.55,95.2176 1565.98,95.2176 1565.98,250.738 
  "></polyline>
<polyline clip-path="url(#clip780)" style="stroke:#009af9; stroke-linecap:round; stroke-linejoin:round; stroke-width:4; stroke-opacity:1; fill:none" points="
  1590.38,147.058 1736.79,147.058 
  "></polyline>
<path clip-path="url(#clip780)" d="M1768.6 131.051 L1768.6 138.412 L1777.37 138.412 L1777.37 141.722 L1768.6 141.722 L1768.6 155.796 Q1768.6 158.967 1769.46 159.87 Q1770.34 160.773 1773 160.773 L1777.37 160.773 L1777.37 164.338 L1773 164.338 Q1768.07 164.338 1766.19 162.509 Q1764.32 160.657 1764.32 155.796 L1764.32 141.722 L1761.19 141.722 L1761.19 138.412 L1764.32 138.412 L1764.32 131.051 L1768.6 131.051 Z" fill="#000000" fill-rule="evenodd" fill-opacity="1"></path><path clip-path="url(#clip780)" d="M1786.45 149.824 Q1786.61 151.537 1788.07 154.314 Q1789.78 157.532 1793.02 159.338 Q1796.19 161.097 1799.62 161.12 L1815.75 161.12 L1815.75 164.801 L1799.62 164.801 Q1795.17 164.801 1791.05 162.509 Q1786.96 160.217 1784.76 156.143 Q1782.56 152.069 1782.56 147.74 Q1782.56 143.458 1784.76 139.384 Q1786.96 135.31 1791.05 132.995 Q1795.17 130.68 1799.62 130.68 L1815.75 130.68 L1815.75 134.361 L1799.62 134.361 Q1796.19 134.384 1793.02 136.166 Q1789.8 137.995 1788.07 141.19 Q1786.59 143.967 1786.38 146.12 L1815.75 146.12 L1815.75 149.824 L1786.45 149.824 Z" fill="#000000" fill-rule="evenodd" fill-opacity="1"></path><path clip-path="url(#clip780)" d="M1834.5 128.366 Q1831.4 133.69 1829.9 138.898 Q1828.39 144.106 1828.39 149.453 Q1828.39 154.801 1829.9 160.055 Q1831.42 165.287 1834.5 170.588 L1830.8 170.588 Q1827.33 165.148 1825.59 159.893 Q1823.88 154.639 1823.88 149.453 Q1823.88 144.291 1825.59 139.06 Q1827.3 133.828 1830.8 128.366 L1834.5 128.366 Z" fill="#000000" fill-rule="evenodd" fill-opacity="1"></path><path clip-path="url(#clip780)" d="M1853.37 132.856 Q1849.76 132.856 1847.93 136.421 Q1846.12 139.963 1846.12 147.092 Q1846.12 154.199 1847.93 157.764 Q1849.76 161.305 1853.37 161.305 Q1857 161.305 1858.81 157.764 Q1860.64 154.199 1860.64 147.092 Q1860.64 139.963 1858.81 136.421 Q1857 132.856 1853.37 132.856 M1853.37 129.153 Q1859.18 129.153 1862.23 133.759 Q1865.31 138.342 1865.31 147.092 Q1865.31 155.819 1862.23 160.426 Q1859.18 165.009 1853.37 165.009 Q1847.56 165.009 1844.48 160.426 Q1841.42 155.819 1841.42 147.092 Q1841.42 138.342 1844.48 133.759 Q1847.56 129.153 1853.37 129.153 Z" fill="#000000" fill-rule="evenodd" fill-opacity="1"></path><path clip-path="url(#clip780)" d="M1873.53 158.458 L1878.41 158.458 L1878.41 164.338 L1873.53 164.338 L1873.53 158.458 Z" fill="#000000" fill-rule="evenodd" fill-opacity="1"></path><path clip-path="url(#clip780)" d="M1888.65 129.778 L1907 129.778 L1907 133.713 L1892.93 133.713 L1892.93 142.185 Q1893.95 141.838 1894.97 141.676 Q1895.98 141.49 1897 141.49 Q1902.79 141.49 1906.17 144.662 Q1909.55 147.833 1909.55 153.25 Q1909.55 158.828 1906.08 161.93 Q1902.6 165.009 1896.29 165.009 Q1894.11 165.009 1891.84 164.638 Q1889.6 164.268 1887.19 163.527 L1887.19 158.828 Q1889.27 159.963 1891.49 160.518 Q1893.72 161.074 1896.19 161.074 Q1900.2 161.074 1902.54 158.967 Q1904.87 156.861 1904.87 153.25 Q1904.87 149.639 1902.54 147.532 Q1900.2 145.426 1896.19 145.426 Q1894.32 145.426 1892.44 145.842 Q1890.59 146.259 1888.65 147.139 L1888.65 129.778 Z" fill="#000000" fill-rule="evenodd" fill-opacity="1"></path><path clip-path="url(#clip780)" d="M1919.25 158.458 L1924.13 158.458 L1924.13 162.439 L1920.34 169.847 L1917.35 169.847 L1919.25 162.439 L1919.25 158.458 Z" fill="#000000" fill-rule="evenodd" fill-opacity="1"></path><path clip-path="url(#clip780)" d="M1934.64 160.402 L1942.28 160.402 L1942.28 134.037 L1933.97 135.703 L1933.97 131.444 L1942.23 129.778 L1946.91 129.778 L1946.91 160.402 L1954.55 160.402 L1954.55 164.338 L1934.64 164.338 L1934.64 160.402 Z" fill="#000000" fill-rule="evenodd" fill-opacity="1"></path><path clip-path="url(#clip780)" d="M1973.99 132.856 Q1970.38 132.856 1968.55 136.421 Q1966.75 139.963 1966.75 147.092 Q1966.75 154.199 1968.55 157.764 Q1970.38 161.305 1973.99 161.305 Q1977.63 161.305 1979.43 157.764 Q1981.26 154.199 1981.26 147.092 Q1981.26 139.963 1979.43 136.421 Q1977.63 132.856 1973.99 132.856 M1973.99 129.153 Q1979.8 129.153 1982.86 133.759 Q1985.94 138.342 1985.94 147.092 Q1985.94 155.819 1982.86 160.426 Q1979.8 165.009 1973.99 165.009 Q1968.18 165.009 1965.1 160.426 Q1962.05 155.819 1962.05 147.092 Q1962.05 138.342 1965.1 133.759 Q1968.18 129.153 1973.99 129.153 Z" fill="#000000" fill-rule="evenodd" fill-opacity="1"></path><path clip-path="url(#clip780)" d="M1994.15 158.458 L1999.04 158.458 L1999.04 164.338 L1994.15 164.338 L1994.15 158.458 Z" fill="#000000" fill-rule="evenodd" fill-opacity="1"></path><path clip-path="url(#clip780)" d="M2019.22 132.856 Q2015.61 132.856 2013.78 136.421 Q2011.98 139.963 2011.98 147.092 Q2011.98 154.199 2013.78 157.764 Q2015.61 161.305 2019.22 161.305 Q2022.86 161.305 2024.66 157.764 Q2026.49 154.199 2026.49 147.092 Q2026.49 139.963 2024.66 136.421 Q2022.86 132.856 2019.22 132.856 M2019.22 129.153 Q2025.03 129.153 2028.09 133.759 Q2031.17 138.342 2031.17 147.092 Q2031.17 155.819 2028.09 160.426 Q2025.03 165.009 2019.22 165.009 Q2013.41 165.009 2010.34 160.426 Q2007.28 155.819 2007.28 147.092 Q2007.28 138.342 2010.34 133.759 Q2013.41 129.153 2019.22 129.153 Z" fill="#000000" fill-rule="evenodd" fill-opacity="1"></path><path clip-path="url(#clip780)" d="M2038.11 128.366 L2041.82 128.366 Q2045.29 133.828 2047 139.06 Q2048.74 144.291 2048.74 149.453 Q2048.74 154.639 2047 159.893 Q2045.29 165.148 2041.82 170.588 L2038.11 170.588 Q2041.19 165.287 2042.7 160.055 Q2044.22 154.801 2044.22 149.453 Q2044.22 144.106 2042.7 138.898 Q2041.19 133.69 2038.11 128.366 Z" fill="#000000" fill-rule="evenodd" fill-opacity="1"></path><path clip-path="url(#clip780)" d="M2058.37 158.458 L2063.25 158.458 L2063.25 162.439 L2059.46 169.847 L2056.47 169.847 L2058.37 162.439 L2058.37 158.458 Z" fill="#000000" fill-rule="evenodd" fill-opacity="1"></path><path clip-path="url(#clip780)" d="M2093.9 148.689 L2093.9 164.338 L2089.64 164.338 L2089.64 148.828 Q2089.64 145.148 2088.21 143.319 Q2086.77 141.49 2083.9 141.49 Q2080.45 141.49 2078.46 143.69 Q2076.47 145.889 2076.47 149.685 L2076.47 164.338 L2072.19 164.338 L2072.19 138.412 L2076.47 138.412 L2076.47 142.44 Q2078 140.102 2080.06 138.944 Q2082.14 137.787 2084.85 137.787 Q2089.32 137.787 2091.61 140.565 Q2093.9 143.319 2093.9 148.689 Z" fill="#000000" fill-rule="evenodd" fill-opacity="1"></path><path clip-path="url(#clip780)" d="M2102.95 142.81 L2132.63 142.81 L2132.63 146.699 L2102.95 146.699 L2102.95 142.81 M2102.95 152.254 L2132.63 152.254 L2132.63 156.189 L2102.95 156.189 L2102.95 152.254 Z" fill="#000000" fill-rule="evenodd" fill-opacity="1"></path><path clip-path="url(#clip780)" d="M2143.53 160.402 L2151.17 160.402 L2151.17 134.037 L2142.86 135.703 L2142.86 131.444 L2151.12 129.778 L2155.8 129.778 L2155.8 160.402 L2163.44 160.402 L2163.44 164.338 L2143.53 164.338 L2143.53 160.402 Z" fill="#000000" fill-rule="evenodd" fill-opacity="1"></path><path clip-path="url(#clip780)" d="M2182.88 132.856 Q2179.27 132.856 2177.44 136.421 Q2175.64 139.963 2175.64 147.092 Q2175.64 154.199 2177.44 157.764 Q2179.27 161.305 2182.88 161.305 Q2186.52 161.305 2188.32 157.764 Q2190.15 154.199 2190.15 147.092 Q2190.15 139.963 2188.32 136.421 Q2186.52 132.856 2182.88 132.856 M2182.88 129.153 Q2188.69 129.153 2191.75 133.759 Q2194.83 138.342 2194.83 147.092 Q2194.83 155.819 2191.75 160.426 Q2188.69 165.009 2182.88 165.009 Q2177.07 165.009 2173.99 160.426 Q2170.94 155.819 2170.94 147.092 Q2170.94 138.342 2173.99 133.759 Q2177.07 129.153 2182.88 129.153 Z" fill="#000000" fill-rule="evenodd" fill-opacity="1"></path><path clip-path="url(#clip780)" d="M2213.04 132.856 Q2209.43 132.856 2207.6 136.421 Q2205.8 139.963 2205.8 147.092 Q2205.8 154.199 2207.6 157.764 Q2209.43 161.305 2213.04 161.305 Q2216.68 161.305 2218.48 157.764 Q2220.31 154.199 2220.31 147.092 Q2220.31 139.963 2218.48 136.421 Q2216.68 132.856 2213.04 132.856 M2213.04 129.153 Q2218.85 129.153 2221.91 133.759 Q2224.99 138.342 2224.99 147.092 Q2224.99 155.819 2221.91 160.426 Q2218.85 165.009 2213.04 165.009 Q2207.23 165.009 2204.15 160.426 Q2201.1 155.819 2201.1 147.092 Q2201.1 138.342 2204.15 133.759 Q2207.23 129.153 2213.04 129.153 Z" fill="#000000" fill-rule="evenodd" fill-opacity="1"></path><path clip-path="url(#clip780)" d="M2243.2 132.856 Q2239.59 132.856 2237.76 136.421 Q2235.96 139.963 2235.96 147.092 Q2235.96 154.199 2237.76 157.764 Q2239.59 161.305 2243.2 161.305 Q2246.84 161.305 2248.64 157.764 Q2250.47 154.199 2250.47 147.092 Q2250.47 139.963 2248.64 136.421 Q2246.84 132.856 2243.2 132.856 M2243.2 129.153 Q2249.01 129.153 2252.07 133.759 Q2255.15 138.342 2255.15 147.092 Q2255.15 155.819 2252.07 160.426 Q2249.01 165.009 2243.2 165.009 Q2237.39 165.009 2234.32 160.426 Q2231.26 155.819 2231.26 147.092 Q2231.26 138.342 2234.32 133.759 Q2237.39 129.153 2243.2 129.153 Z" fill="#000000" fill-rule="evenodd" fill-opacity="1"></path><polyline clip-path="url(#clip780)" style="stroke:#e26f46; stroke-linecap:round; stroke-linejoin:round; stroke-width:4; stroke-opacity:1; fill:none" points="
  1590.38,198.898 1736.79,198.898 
  "></polyline>
<path clip-path="url(#clip780)" d="M1761.19 181.618 L1768.16 181.618 L1776.98 205.136 L1785.85 181.618 L1792.81 181.618 L1792.81 216.178 L1788.25 216.178 L1788.25 185.83 L1779.34 209.534 L1774.64 209.534 L1765.73 185.83 L1765.73 216.178 L1761.19 216.178 L1761.19 181.618 Z" fill="#000000" fill-rule="evenodd" fill-opacity="1"></path><path clip-path="url(#clip780)" d="M1806.77 199.673 L1806.77 212.335 L1814.27 212.335 Q1818.04 212.335 1819.85 210.784 Q1821.68 209.21 1821.68 205.992 Q1821.68 202.752 1819.85 201.224 Q1818.04 199.673 1814.27 199.673 L1806.77 199.673 M1806.77 185.46 L1806.77 195.877 L1813.69 195.877 Q1817.12 195.877 1818.79 194.604 Q1820.48 193.307 1820.48 190.668 Q1820.48 188.053 1818.79 186.756 Q1817.12 185.46 1813.69 185.46 L1806.77 185.46 M1802.1 181.618 L1814.04 181.618 Q1819.39 181.618 1822.28 183.84 Q1825.17 186.062 1825.17 190.159 Q1825.17 193.33 1823.69 195.205 Q1822.21 197.08 1819.34 197.543 Q1822.79 198.284 1824.69 200.645 Q1826.61 202.983 1826.61 206.502 Q1826.61 211.131 1823.46 213.654 Q1820.31 216.178 1814.5 216.178 L1802.1 216.178 L1802.1 181.618 Z" fill="#000000" fill-rule="evenodd" fill-opacity="1"></path><path clip-path="url(#clip780)" d="M1839.29 185.46 L1839.29 212.335 L1844.94 212.335 Q1852.1 212.335 1855.41 209.094 Q1858.74 205.854 1858.74 198.863 Q1858.74 191.918 1855.41 188.701 Q1852.1 185.46 1844.94 185.46 L1839.29 185.46 M1834.62 181.618 L1844.23 181.618 Q1854.27 181.618 1858.97 185.807 Q1863.67 189.974 1863.67 198.863 Q1863.67 207.798 1858.95 211.988 Q1854.23 216.178 1844.23 216.178 L1834.62 216.178 L1834.62 181.618 Z" fill="#000000" fill-rule="evenodd" fill-opacity="1"></path></svg>