<svg xmlns="http://www.w3.org/2000/svg" xmlns:xlink="http://www.w3.org/1999/xlink" width="600" height="400" viewBox="0 0 2400 1600">
<defs>
  <clipPath id="clip170">
    <rect x="0" y="0" width="2400" height="1600"></rect>
  </clipPath>
</defs>
<path clip-path="url(#clip170)" d="
M0 1600 L2400 1600 L2400 0 L0 0  Z
  " fill="#ffffff" fill-rule="evenodd" fill-opacity="1"></path>
<defs>
  <clipPath id="clip171">
    <rect x="480" y="0" width="1681" height="1600"></rect>
  </clipPath>
</defs>
<path clip-path="url(#clip170)" d="
M186.274 1486.45 L2352.76 1486.45 L2352.76 47.2441 L186.274 47.2441  Z
  " fill="#ffffff" fill-rule="evenodd" fill-opacity="1"></path>
<defs>
  <clipPath id="clip172">
    <rect x="186" y="47" width="2167" height="1440"></rect>
  </clipPath>
</defs>
<polyline clip-path="url(#clip172)" style="stroke:#000000; stroke-linecap:round; stroke-linejoin:round; stroke-width:2; stroke-opacity:0.1; fill:none" points="
  247.59,1486.45 247.59,47.2441 
  "></polyline>
<polyline clip-path="url(#clip172)" style="stroke:#000000; stroke-linecap:round; stroke-linejoin:round; stroke-width:2; stroke-opacity:0.1; fill:none" points="
  597.903,1486.45 597.903,47.2441 
  "></polyline>
<polyline clip-path="url(#clip172)" style="stroke:#000000; stroke-linecap:round; stroke-linejoin:round; stroke-width:2; stroke-opacity:0.1; fill:none" points="
  948.217,1486.45 948.217,47.2441 
  "></polyline>
<polyline clip-path="url(#clip172)" style="stroke:#000000; stroke-linecap:round; stroke-linejoin:round; stroke-width:2; stroke-opacity:0.1; fill:none" points="
  1298.53,1486.45 1298.53,47.2441 
  "></polyline>
<polyline clip-path="url(#clip172)" style="stroke:#000000; stroke-linecap:round; stroke-linejoin:round; stroke-width:2; stroke-opacity:0.1; fill:none" points="
  1648.84,1486.45 1648.84,47.2441 
  "></polyline>
<polyline clip-path="url(#clip172)" style="stroke:#000000; stroke-linecap:round; stroke-linejoin:round; stroke-width:2; stroke-opacity:0.1; fill:none" points="
  1999.16,1486.45 1999.16,47.2441 
  "></polyline>
<polyline clip-path="url(#clip172)" style="stroke:#000000; stroke-linecap:round; stroke-linejoin:round; stroke-width:2; stroke-opacity:0.1; fill:none" points="
  2349.47,1486.45 2349.47,47.2441 
  "></polyline>
<polyline clip-path="url(#clip170)" style="stroke:#000000; stroke-linecap:round; stroke-linejoin:round; stroke-width:4; stroke-opacity:1; fill:none" points="
  186.274,1486.45 2352.76,1486.45 
  "></polyline>
<polyline clip-path="url(#clip170)" style="stroke:#000000; stroke-linecap:round; stroke-linejoin:round; stroke-width:4; stroke-opacity:1; fill:none" points="
  247.59,1486.45 247.59,1467.55 
  "></polyline>
<polyline clip-path="url(#clip170)" style="stroke:#000000; stroke-linecap:round; stroke-linejoin:round; stroke-width:4; stroke-opacity:1; fill:none" points="
  597.903,1486.45 597.903,1467.55 
  "></polyline>
<polyline clip-path="url(#clip170)" style="stroke:#000000; stroke-linecap:round; stroke-linejoin:round; stroke-width:4; stroke-opacity:1; fill:none" points="
  948.217,1486.45 948.217,1467.55 
  "></polyline>
<polyline clip-path="url(#clip170)" style="stroke:#000000; stroke-linecap:round; stroke-linejoin:round; stroke-width:4; stroke-opacity:1; fill:none" points="
  1298.53,1486.45 1298.53,1467.55 
  "></polyline>
<polyline clip-path="url(#clip170)" style="stroke:#000000; stroke-linecap:round; stroke-linejoin:round; stroke-width:4; stroke-opacity:1; fill:none" points="
  1648.84,1486.45 1648.84,1467.55 
  "></polyline>
<polyline clip-path="url(#clip170)" style="stroke:#000000; stroke-linecap:round; stroke-linejoin:round; stroke-width:4; stroke-opacity:1; fill:none" points="
  1999.16,1486.45 1999.16,1467.55 
  "></polyline>
<polyline clip-path="url(#clip170)" style="stroke:#000000; stroke-linecap:round; stroke-linejoin:round; stroke-width:4; stroke-opacity:1; fill:none" points="
  2349.47,1486.45 2349.47,1467.55 
  "></polyline>
<path clip-path="url(#clip170)" d="M247.59 1517.37 Q243.978 1517.37 242.15 1520.93 Q240.344 1524.47 240.344 1531.6 Q240.344 1538.71 242.15 1542.27 Q243.978 1545.82 247.59 1545.82 Q251.224 1545.82 253.029 1542.27 Q254.858 1538.71 254.858 1531.6 Q254.858 1524.47 253.029 1520.93 Q251.224 1517.37 247.59 1517.37 M247.59 1513.66 Q253.4 1513.66 256.455 1518.27 Q259.534 1522.85 259.534 1531.6 Q259.534 1540.33 256.455 1544.94 Q253.4 1549.52 247.59 1549.52 Q241.779 1549.52 238.701 1544.94 Q235.645 1540.33 235.645 1531.6 Q235.645 1522.85 238.701 1518.27 Q241.779 1513.66 247.59 1513.66 Z" fill="#000000" fill-rule="evenodd" fill-opacity="1"></path><path clip-path="url(#clip170)" d="M588.285 1544.91 L595.924 1544.91 L595.924 1518.55 L587.614 1520.21 L587.614 1515.95 L595.878 1514.29 L600.553 1514.29 L600.553 1544.91 L608.192 1544.91 L608.192 1548.85 L588.285 1548.85 L588.285 1544.91 Z" fill="#000000" fill-rule="evenodd" fill-opacity="1"></path><path clip-path="url(#clip170)" d="M942.869 1544.91 L959.189 1544.91 L959.189 1548.85 L937.244 1548.85 L937.244 1544.91 Q939.906 1542.16 944.49 1537.53 Q949.096 1532.88 950.277 1531.53 Q952.522 1529.01 953.402 1527.27 Q954.304 1525.51 954.304 1523.82 Q954.304 1521.07 952.36 1519.33 Q950.439 1517.6 947.337 1517.6 Q945.138 1517.6 942.684 1518.36 Q940.254 1519.13 937.476 1520.68 L937.476 1515.95 Q940.3 1514.82 942.754 1514.24 Q945.207 1513.66 947.244 1513.66 Q952.615 1513.66 955.809 1516.35 Q959.004 1519.03 959.004 1523.52 Q959.004 1525.65 958.193 1527.57 Q957.406 1529.47 955.3 1532.07 Q954.721 1532.74 951.619 1535.95 Q948.517 1539.15 942.869 1544.91 Z" fill="#000000" fill-rule="evenodd" fill-opacity="1"></path><path clip-path="url(#clip170)" d="M1302.78 1530.21 Q1306.13 1530.93 1308.01 1533.2 Q1309.91 1535.47 1309.91 1538.8 Q1309.91 1543.92 1306.39 1546.72 Q1302.87 1549.52 1296.39 1549.52 Q1294.21 1549.52 1291.9 1549.08 Q1289.61 1548.66 1287.15 1547.81 L1287.15 1543.29 Q1289.1 1544.43 1291.41 1545.01 Q1293.73 1545.58 1296.25 1545.58 Q1300.65 1545.58 1302.94 1543.85 Q1305.25 1542.11 1305.25 1538.8 Q1305.25 1535.75 1303.1 1534.03 Q1300.97 1532.3 1297.15 1532.3 L1293.12 1532.3 L1293.12 1528.45 L1297.34 1528.45 Q1300.79 1528.45 1302.62 1527.09 Q1304.44 1525.7 1304.44 1523.11 Q1304.44 1520.45 1302.55 1519.03 Q1300.67 1517.6 1297.15 1517.6 Q1295.23 1517.6 1293.03 1518.01 Q1290.83 1518.43 1288.19 1519.31 L1288.19 1515.14 Q1290.86 1514.4 1293.17 1514.03 Q1295.51 1513.66 1297.57 1513.66 Q1302.89 1513.66 1306 1516.09 Q1309.1 1518.5 1309.1 1522.62 Q1309.1 1525.49 1307.45 1527.48 Q1305.81 1529.45 1302.78 1530.21 Z" fill="#000000" fill-rule="evenodd" fill-opacity="1"></path><path clip-path="url(#clip170)" d="M1651.85 1518.36 L1640.05 1536.81 L1651.85 1536.81 L1651.85 1518.36 M1650.63 1514.29 L1656.51 1514.29 L1656.51 1536.81 L1661.44 1536.81 L1661.44 1540.7 L1656.51 1540.7 L1656.51 1548.85 L1651.85 1548.85 L1651.85 1540.7 L1636.25 1540.7 L1636.25 1536.19 L1650.63 1514.29 Z" fill="#000000" fill-rule="evenodd" fill-opacity="1"></path><path clip-path="url(#clip170)" d="M1989.43 1514.29 L2007.79 1514.29 L2007.79 1518.22 L1993.72 1518.22 L1993.72 1526.7 Q1994.74 1526.35 1995.75 1526.19 Q1996.77 1526 1997.79 1526 Q2003.58 1526 2006.96 1529.17 Q2010.34 1532.34 2010.34 1537.76 Q2010.34 1543.34 2006.87 1546.44 Q2003.39 1549.52 1997.07 1549.52 Q1994.9 1549.52 1992.63 1549.15 Q1990.38 1548.78 1987.98 1548.04 L1987.98 1543.34 Q1990.06 1544.47 1992.28 1545.03 Q1994.5 1545.58 1996.98 1545.58 Q2000.99 1545.58 2003.32 1543.48 Q2005.66 1541.37 2005.66 1537.76 Q2005.66 1534.15 2003.32 1532.04 Q2000.99 1529.94 1996.98 1529.94 Q1995.11 1529.94 1993.23 1530.35 Q1991.38 1530.77 1989.43 1531.65 L1989.43 1514.29 Z" fill="#000000" fill-rule="evenodd" fill-opacity="1"></path><path clip-path="url(#clip170)" d="M2349.88 1529.7 Q2346.73 1529.7 2344.88 1531.86 Q2343.05 1534.01 2343.05 1537.76 Q2343.05 1541.49 2344.88 1543.66 Q2346.73 1545.82 2349.88 1545.82 Q2353.02 1545.82 2354.85 1543.66 Q2356.7 1541.49 2356.7 1537.76 Q2356.7 1534.01 2354.85 1531.86 Q2353.02 1529.7 2349.88 1529.7 M2359.16 1515.05 L2359.16 1519.31 Q2357.4 1518.48 2355.59 1518.04 Q2353.81 1517.6 2352.05 1517.6 Q2347.42 1517.6 2344.97 1520.72 Q2342.54 1523.85 2342.19 1530.17 Q2343.56 1528.15 2345.62 1527.09 Q2347.68 1526 2350.15 1526 Q2355.36 1526 2358.37 1529.17 Q2361.4 1532.32 2361.4 1537.76 Q2361.4 1543.08 2358.26 1546.3 Q2355.11 1549.52 2349.88 1549.52 Q2343.88 1549.52 2340.71 1544.94 Q2337.54 1540.33 2337.54 1531.6 Q2337.54 1523.41 2341.43 1518.55 Q2345.32 1513.66 2351.87 1513.66 Q2353.63 1513.66 2355.41 1514.01 Q2357.21 1514.36 2359.16 1515.05 Z" fill="#000000" fill-rule="evenodd" fill-opacity="1"></path><polyline clip-path="url(#clip172)" style="stroke:#000000; stroke-linecap:round; stroke-linejoin:round; stroke-width:2; stroke-opacity:0.1; fill:none" points="
  186.274,1445.72 2352.76,1445.72 
  "></polyline>
<polyline clip-path="url(#clip172)" style="stroke:#000000; stroke-linecap:round; stroke-linejoin:round; stroke-width:2; stroke-opacity:0.1; fill:none" points="
  186.274,1132.87 2352.76,1132.87 
  "></polyline>
<polyline clip-path="url(#clip172)" style="stroke:#000000; stroke-linecap:round; stroke-linejoin:round; stroke-width:2; stroke-opacity:0.1; fill:none" points="
  186.274,820.026 2352.76,820.026 
  "></polyline>
<polyline clip-path="url(#clip172)" style="stroke:#000000; stroke-linecap:round; stroke-linejoin:round; stroke-width:2; stroke-opacity:0.1; fill:none" points="
  186.274,507.181 2352.76,507.181 
  "></polyline>
<polyline clip-path="url(#clip172)" style="stroke:#000000; stroke-linecap:round; stroke-linejoin:round; stroke-width:2; stroke-opacity:0.1; fill:none" points="
  186.274,194.336 2352.76,194.336 
  "></polyline>
<polyline clip-path="url(#clip170)" style="stroke:#000000; stroke-linecap:round; stroke-linejoin:round; stroke-width:4; stroke-opacity:1; fill:none" points="
  186.274,1486.45 186.274,47.2441 
  "></polyline>
<polyline clip-path="url(#clip170)" style="stroke:#000000; stroke-linecap:round; stroke-linejoin:round; stroke-width:4; stroke-opacity:1; fill:none" points="
  186.274,1445.72 205.172,1445.72 
  "></polyline>
<polyline clip-path="url(#clip170)" style="stroke:#000000; stroke-linecap:round; stroke-linejoin:round; stroke-width:4; stroke-opacity:1; fill:none" points="
  186.274,1132.87 205.172,1132.87 
  "></polyline>
<polyline clip-path="url(#clip170)" style="stroke:#000000; stroke-linecap:round; stroke-linejoin:round; stroke-width:4; stroke-opacity:1; fill:none" points="
  186.274,820.026 205.172,820.026 
  "></polyline>
<polyline clip-path="url(#clip170)" style="stroke:#000000; stroke-linecap:round; stroke-linejoin:round; stroke-width:4; stroke-opacity:1; fill:none" points="
  186.274,507.181 205.172,507.181 
  "></polyline>
<polyline clip-path="url(#clip170)" style="stroke:#000000; stroke-linecap:round; stroke-linejoin:round; stroke-width:4; stroke-opacity:1; fill:none" points="
  186.274,194.336 205.172,194.336 
  "></polyline>
<path clip-path="url(#clip170)" d="M62.9365 1431.51 Q59.3254 1431.51 57.4967 1435.08 Q55.6912 1438.62 55.6912 1445.75 Q55.6912 1452.86 57.4967 1456.42 Q59.3254 1459.96 62.9365 1459.96 Q66.5707 1459.96 68.3763 1456.42 Q70.205 1452.86 70.205 1445.75 Q70.205 1438.62 68.3763 1435.08 Q66.5707 1431.51 62.9365 1431.51 M62.9365 1427.81 Q68.7467 1427.81 71.8022 1432.42 Q74.8809 1437 74.8809 1445.75 Q74.8809 1454.48 71.8022 1459.08 Q68.7467 1463.67 62.9365 1463.67 Q57.1264 1463.67 54.0477 1459.08 Q50.9921 1454.48 50.9921 1445.75 Q50.9921 1437 54.0477 1432.42 Q57.1264 1427.81 62.9365 1427.81 Z" fill="#000000" fill-rule="evenodd" fill-opacity="1"></path><path clip-path="url(#clip170)" d="M83.0984 1457.12 L87.9827 1457.12 L87.9827 1463 L83.0984 1463 L83.0984 1457.12 Z" fill="#000000" fill-rule="evenodd" fill-opacity="1"></path><path clip-path="url(#clip170)" d="M108.168 1431.51 Q104.557 1431.51 102.728 1435.08 Q100.922 1438.62 100.922 1445.75 Q100.922 1452.86 102.728 1456.42 Q104.557 1459.96 108.168 1459.96 Q111.802 1459.96 113.608 1456.42 Q115.436 1452.86 115.436 1445.75 Q115.436 1438.62 113.608 1435.08 Q111.802 1431.51 108.168 1431.51 M108.168 1427.81 Q113.978 1427.81 117.033 1432.42 Q120.112 1437 120.112 1445.75 Q120.112 1454.48 117.033 1459.08 Q113.978 1463.67 108.168 1463.67 Q102.358 1463.67 99.2789 1459.08 Q96.2234 1454.48 96.2234 1445.75 Q96.2234 1437 99.2789 1432.42 Q102.358 1427.81 108.168 1427.81 Z" fill="#000000" fill-rule="evenodd" fill-opacity="1"></path><path clip-path="url(#clip170)" d="M138.33 1431.51 Q134.719 1431.51 132.89 1435.08 Q131.084 1438.62 131.084 1445.75 Q131.084 1452.86 132.89 1456.42 Q134.719 1459.96 138.33 1459.96 Q141.964 1459.96 143.769 1456.42 Q145.598 1452.86 145.598 1445.75 Q145.598 1438.62 143.769 1435.08 Q141.964 1431.51 138.33 1431.51 M138.33 1427.81 Q144.14 1427.81 147.195 1432.42 Q150.274 1437 150.274 1445.75 Q150.274 1454.48 147.195 1459.08 Q144.14 1463.67 138.33 1463.67 Q132.519 1463.67 129.441 1459.08 Q126.385 1454.48 126.385 1445.75 Q126.385 1437 129.441 1432.42 Q132.519 1427.81 138.33 1427.81 Z" fill="#000000" fill-rule="evenodd" fill-opacity="1"></path><path clip-path="url(#clip170)" d="M63.9319 1118.67 Q60.3208 1118.67 58.4921 1122.23 Q56.6865 1125.78 56.6865 1132.91 Q56.6865 1140.01 58.4921 1143.58 Q60.3208 1147.12 63.9319 1147.12 Q67.5661 1147.12 69.3717 1143.58 Q71.2004 1140.01 71.2004 1132.91 Q71.2004 1125.78 69.3717 1122.23 Q67.5661 1118.67 63.9319 1118.67 M63.9319 1114.97 Q69.742 1114.97 72.7976 1119.57 Q75.8763 1124.16 75.8763 1132.91 Q75.8763 1141.63 72.7976 1146.24 Q69.742 1150.82 63.9319 1150.82 Q58.1217 1150.82 55.043 1146.24 Q51.9875 1141.63 51.9875 1132.91 Q51.9875 1124.16 55.043 1119.57 Q58.1217 1114.97 63.9319 1114.97 Z" fill="#000000" fill-rule="evenodd" fill-opacity="1"></path><path clip-path="url(#clip170)" d="M84.0938 1144.27 L88.978 1144.27 L88.978 1150.15 L84.0938 1150.15 L84.0938 1144.27 Z" fill="#000000" fill-rule="evenodd" fill-opacity="1"></path><path clip-path="url(#clip170)" d="M103.191 1146.22 L119.51 1146.22 L119.51 1150.15 L97.566 1150.15 L97.566 1146.22 Q100.228 1143.46 104.811 1138.83 Q109.418 1134.18 110.598 1132.84 Q112.844 1130.31 113.723 1128.58 Q114.626 1126.82 114.626 1125.13 Q114.626 1122.37 112.682 1120.64 Q110.76 1118.9 107.658 1118.9 Q105.459 1118.9 103.006 1119.66 Q100.575 1120.43 97.7974 1121.98 L97.7974 1117.26 Q100.621 1116.12 103.075 1115.54 Q105.529 1114.97 107.566 1114.97 Q112.936 1114.97 116.131 1117.65 Q119.325 1120.34 119.325 1124.83 Q119.325 1126.96 118.515 1128.88 Q117.728 1130.78 115.621 1133.37 Q115.043 1134.04 111.941 1137.26 Q108.839 1140.45 103.191 1146.22 Z" fill="#000000" fill-rule="evenodd" fill-opacity="1"></path><path clip-path="url(#clip170)" d="M129.371 1115.59 L147.728 1115.59 L147.728 1119.53 L133.654 1119.53 L133.654 1128 Q134.672 1127.65 135.691 1127.49 Q136.709 1127.3 137.728 1127.3 Q143.515 1127.3 146.894 1130.48 Q150.274 1133.65 150.274 1139.06 Q150.274 1144.64 146.802 1147.74 Q143.33 1150.82 137.01 1150.82 Q134.834 1150.82 132.566 1150.45 Q130.32 1150.08 127.913 1149.34 L127.913 1144.64 Q129.996 1145.78 132.219 1146.33 Q134.441 1146.89 136.918 1146.89 Q140.922 1146.89 143.26 1144.78 Q145.598 1142.67 145.598 1139.06 Q145.598 1135.45 143.26 1133.35 Q140.922 1131.24 136.918 1131.24 Q135.043 1131.24 133.168 1131.66 Q131.316 1132.07 129.371 1132.95 L129.371 1115.59 Z" fill="#000000" fill-rule="evenodd" fill-opacity="1"></path><path clip-path="url(#clip170)" d="M62.9365 805.825 Q59.3254 805.825 57.4967 809.39 Q55.6912 812.931 55.6912 820.061 Q55.6912 827.167 57.4967 830.732 Q59.3254 834.274 62.9365 834.274 Q66.5707 834.274 68.3763 830.732 Q70.205 827.167 70.205 820.061 Q70.205 812.931 68.3763 809.39 Q66.5707 805.825 62.9365 805.825 M62.9365 802.121 Q68.7467 802.121 71.8022 806.727 Q74.8809 811.311 74.8809 820.061 Q74.8809 828.788 71.8022 833.394 Q68.7467 837.977 62.9365 837.977 Q57.1264 837.977 54.0477 833.394 Q50.9921 828.788 50.9921 820.061 Q50.9921 811.311 54.0477 806.727 Q57.1264 802.121 62.9365 802.121 Z" fill="#000000" fill-rule="evenodd" fill-opacity="1"></path><path clip-path="url(#clip170)" d="M83.0984 831.426 L87.9827 831.426 L87.9827 837.306 L83.0984 837.306 L83.0984 831.426 Z" fill="#000000" fill-rule="evenodd" fill-opacity="1"></path><path clip-path="url(#clip170)" d="M98.2141 802.746 L116.57 802.746 L116.57 806.681 L102.496 806.681 L102.496 815.153 Q103.515 814.806 104.534 814.644 Q105.552 814.459 106.571 814.459 Q112.358 814.459 115.737 817.63 Q119.117 820.801 119.117 826.218 Q119.117 831.797 115.645 834.899 Q112.172 837.977 105.853 837.977 Q103.677 837.977 101.409 837.607 Q99.1632 837.237 96.7558 836.496 L96.7558 831.797 Q98.8391 832.931 101.061 833.487 Q103.284 834.042 105.76 834.042 Q109.765 834.042 112.103 831.936 Q114.441 829.829 114.441 826.218 Q114.441 822.607 112.103 820.501 Q109.765 818.394 105.76 818.394 Q103.885 818.394 102.01 818.811 Q100.159 819.227 98.2141 820.107 L98.2141 802.746 Z" fill="#000000" fill-rule="evenodd" fill-opacity="1"></path><path clip-path="url(#clip170)" d="M138.33 805.825 Q134.719 805.825 132.89 809.39 Q131.084 812.931 131.084 820.061 Q131.084 827.167 132.89 830.732 Q134.719 834.274 138.33 834.274 Q141.964 834.274 143.769 830.732 Q145.598 827.167 145.598 820.061 Q145.598 812.931 143.769 809.39 Q141.964 805.825 138.33 805.825 M138.33 802.121 Q144.14 802.121 147.195 806.727 Q150.274 811.311 150.274 820.061 Q150.274 828.788 147.195 833.394 Q144.14 837.977 138.33 837.977 Q132.519 837.977 129.441 833.394 Q126.385 828.788 126.385 820.061 Q126.385 811.311 129.441 806.727 Q132.519 802.121 138.33 802.121 Z" fill="#000000" fill-rule="evenodd" fill-opacity="1"></path><path clip-path="url(#clip170)" d="M63.9319 492.98 Q60.3208 492.98 58.4921 496.545 Q56.6865 500.086 56.6865 507.216 Q56.6865 514.322 58.4921 517.887 Q60.3208 521.429 63.9319 521.429 Q67.5661 521.429 69.3717 517.887 Q71.2004 514.322 71.2004 507.216 Q71.2004 500.086 69.3717 496.545 Q67.5661 492.98 63.9319 492.98 M63.9319 489.276 Q69.742 489.276 72.7976 493.883 Q75.8763 498.466 75.8763 507.216 Q75.8763 515.943 72.7976 520.549 Q69.742 525.133 63.9319 525.133 Q58.1217 525.133 55.043 520.549 Q51.9875 515.943 51.9875 507.216 Q51.9875 498.466 55.043 493.883 Q58.1217 489.276 63.9319 489.276 Z" fill="#000000" fill-rule="evenodd" fill-opacity="1"></path><path clip-path="url(#clip170)" d="M84.0938 518.582 L88.978 518.582 L88.978 524.461 L84.0938 524.461 L84.0938 518.582 Z" fill="#000000" fill-rule="evenodd" fill-opacity="1"></path><path clip-path="url(#clip170)" d="M97.9826 489.901 L120.205 489.901 L120.205 491.892 L107.658 524.461 L102.774 524.461 L114.58 493.836 L97.9826 493.836 L97.9826 489.901 Z" fill="#000000" fill-rule="evenodd" fill-opacity="1"></path><path clip-path="url(#clip170)" d="M129.371 489.901 L147.728 489.901 L147.728 493.836 L133.654 493.836 L133.654 502.309 Q134.672 501.961 135.691 501.799 Q136.709 501.614 137.728 501.614 Q143.515 501.614 146.894 504.785 Q150.274 507.957 150.274 513.373 Q150.274 518.952 146.802 522.054 Q143.33 525.133 137.01 525.133 Q134.834 525.133 132.566 524.762 Q130.32 524.392 127.913 523.651 L127.913 518.952 Q129.996 520.086 132.219 520.642 Q134.441 521.197 136.918 521.197 Q140.922 521.197 143.26 519.091 Q145.598 516.984 145.598 513.373 Q145.598 509.762 143.26 507.656 Q140.922 505.549 136.918 505.549 Q135.043 505.549 133.168 505.966 Q131.316 506.383 129.371 507.262 L129.371 489.901 Z" fill="#000000" fill-rule="evenodd" fill-opacity="1"></path><path clip-path="url(#clip170)" d="M53.7467 207.681 L61.3856 207.681 L61.3856 181.316 L53.0754 182.982 L53.0754 178.723 L61.3393 177.056 L66.0152 177.056 L66.0152 207.681 L73.654 207.681 L73.654 211.616 L53.7467 211.616 L53.7467 207.681 Z" fill="#000000" fill-rule="evenodd" fill-opacity="1"></path><path clip-path="url(#clip170)" d="M83.0984 205.737 L87.9827 205.737 L87.9827 211.616 L83.0984 211.616 L83.0984 205.737 Z" fill="#000000" fill-rule="evenodd" fill-opacity="1"></path><path clip-path="url(#clip170)" d="M108.168 180.135 Q104.557 180.135 102.728 183.7 Q100.922 187.242 100.922 194.371 Q100.922 201.478 102.728 205.042 Q104.557 208.584 108.168 208.584 Q111.802 208.584 113.608 205.042 Q115.436 201.478 115.436 194.371 Q115.436 187.242 113.608 183.7 Q111.802 180.135 108.168 180.135 M108.168 176.431 Q113.978 176.431 117.033 181.038 Q120.112 185.621 120.112 194.371 Q120.112 203.098 117.033 207.704 Q113.978 212.288 108.168 212.288 Q102.358 212.288 99.2789 207.704 Q96.2234 203.098 96.2234 194.371 Q96.2234 185.621 99.2789 181.038 Q102.358 176.431 108.168 176.431 Z" fill="#000000" fill-rule="evenodd" fill-opacity="1"></path><path clip-path="url(#clip170)" d="M138.33 180.135 Q134.719 180.135 132.89 183.7 Q131.084 187.242 131.084 194.371 Q131.084 201.478 132.89 205.042 Q134.719 208.584 138.33 208.584 Q141.964 208.584 143.769 205.042 Q145.598 201.478 145.598 194.371 Q145.598 187.242 143.769 183.7 Q141.964 180.135 138.33 180.135 M138.33 176.431 Q144.14 176.431 147.195 181.038 Q150.274 185.621 150.274 194.371 Q150.274 203.098 147.195 207.704 Q144.14 212.288 138.33 212.288 Q132.519 212.288 129.441 207.704 Q126.385 203.098 126.385 194.371 Q126.385 185.621 129.441 181.038 Q132.519 176.431 138.33 176.431 Z" fill="#000000" fill-rule="evenodd" fill-opacity="1"></path><polyline clip-path="url(#clip172)" style="stroke:#009af9; stroke-linecap:round; stroke-linejoin:round; stroke-width:4; stroke-opacity:1; fill:none" points="
  253.669,1418.66 264.566,1396.57 275.463,1369.84 286.36,1339.95 297.257,1307.34 308.154,1272.81 319.052,1238.9 329.949,1207.59 340.846,1177.82 351.743,1148.5 
  362.64,1120.22 373.538,1092.67 384.435,1065.3 395.332,1040.7 406.229,1021.21 417.126,1003.98 428.023,984.058 438.921,958.945 449.818,929.906 460.715,902.319 
  471.612,882.61 482.509,872.301 493.406,865.96 504.304,857.009 515.201,844.174 526.098,830.796 536.995,820.758 547.892,815.161 558.79,811.29 569.687,805.371 
  580.584,795.858 591.481,784.408 602.378,774.664 613.275,769.419 624.173,770.324 635.07,776.643 645.967,781.304 656.864,778.028 667.761,771.27 678.658,769.651 
  689.556,775.659 700.453,785.576 711.35,794.399 722.247,800.563 733.144,806.789 744.042,815.134 754.939,824.636 765.836,834.788 776.733,845.939 787.63,857.029 
  798.527,866.909 809.425,876.388 820.322,887.014 831.219,898.565 842.116,909.411 853.013,920.226 863.91,934.274 874.808,951.891 885.705,969.042 896.602,983.284 
  907.499,995.732 918.396,1007.3 929.293,1017.72 940.191,1027.92 951.088,1040.7 961.985,1057.41 972.882,1075.45 983.779,1091.12 994.677,1103.62 1005.57,1114.17 
  1016.47,1124.18 1027.37,1135.3 1038.27,1148.04 1049.16,1161.09 1060.06,1173.88 1070.96,1186.64 1081.85,1198.99 1092.75,1210.41 1103.65,1221.31 1114.55,1232 
  1125.44,1241.69 1136.34,1249.89 1147.24,1258.31 1158.13,1268.94 1169.03,1280.5 1179.93,1289.97 1190.83,1296.92 1201.72,1303.49 1212.62,1311 1223.52,1318.52 
  1234.41,1325.27 1245.31,1332.12 1256.21,1339.22 1267.11,1345.68 1278,1351.77 1288.9,1358.2 1299.8,1364.44 1310.69,1369.86 1321.59,1374.58 1332.49,1378.88 
  1343.39,1382.89 1354.28,1386.72 1365.18,1390.24 1376.08,1393.82 1386.97,1398.13 1397.87,1402.68 1408.77,1406.29 1419.67,1408.88 1430.56,1411.1 1441.46,1413.29 
  1452.36,1415.71 1463.26,1418.41 1474.15,1420.87 1485.05,1422.87 1495.95,1424.67 1506.84,1426.38 1517.74,1427.88 1528.64,1429.14 1539.54,1430.26 1550.43,1431.28 
  1561.33,1432.14 1572.23,1432.87 1583.12,1433.58 1594.02,1434.29 1604.92,1435.09 1615.82,1436.12 1626.71,1437.17 1637.61,1437.89 1648.51,1438.34 1659.4,1438.91 
  1670.3,1439.63 1681.2,1440.22 1692.1,1440.6 1702.99,1440.98 1713.89,1441.46 1724.79,1441.91 1735.68,1442.28 1746.58,1442.66 1757.48,1443.04 1768.38,1443.32 
  1779.27,1443.53 1790.17,1443.74 1801.07,1443.92 1811.96,1444.05 1822.86,1444.19 1833.76,1444.4 1844.66,1444.58 1855.55,1444.67 1866.45,1444.73 1877.35,1444.86 
  1888.24,1445.04 1899.14,1445.2 1910.04,1445.31 1920.94,1445.37 1931.83,1445.39 1942.73,1445.39 1953.63,1445.41 1964.53,1445.44 1975.42,1445.47 1986.32,1445.49 
  1997.22,1445.5 2008.11,1445.53 2019.01,1445.58 2029.91,1445.62 2040.81,1445.63 2051.7,1445.63 2062.6,1445.64 2073.5,1445.66 2084.39,1445.68 2095.29,1445.7 
  2106.19,1445.71 2117.09,1445.7 2127.98,1445.7 2138.88,1445.69 2149.78,1445.68 2160.67,1445.68 2171.57,1445.69 2182.47,1445.7 2193.37,1445.7 2204.26,1445.7 
  2215.16,1445.7 2226.06,1445.7 2236.95,1445.71 2247.85,1445.71 2258.75,1445.71 2269.65,1445.7 2280.54,1445.68 2291.44,1445.67 
  "></polyline>
<polyline clip-path="url(#clip172)" style="stroke:#e26f46; stroke-linecap:round; stroke-linejoin:round; stroke-width:4; stroke-opacity:1; fill:none" points="
  247.59,1445.72 249.343,1440.71 251.096,1435.7 252.849,1430.69 254.603,1425.68 256.356,1420.67 258.109,1415.66 259.863,1410.66 261.616,1405.66 263.369,1400.66 
  265.123,1395.66 266.876,1390.67 268.629,1385.68 270.383,1380.69 272.136,1375.71 273.889,1370.73 275.643,1365.75 277.396,1360.78 279.149,1355.82 280.903,1350.86 
  282.656,1345.91 284.409,1340.96 286.163,1336.02 287.916,1331.08 289.669,1326.16 291.423,1321.23 293.176,1316.32 294.929,1311.42 296.683,1306.52 298.436,1301.63 
  300.189,1296.75 301.942,1291.88 303.696,1287.02 305.449,1282.16 307.202,1277.32 308.956,1272.49 310.709,1267.66 312.462,1262.85 314.216,1258.05 315.969,1253.26 
  317.722,1248.48 319.476,1243.72 321.229,1238.96 322.982,1234.22 324.736,1229.49 326.489,1224.77 328.242,1220.07 329.996,1215.38 331.749,1210.7 333.502,1206.04 
  335.256,1201.39 337.009,1196.75 338.762,1192.13 340.516,1187.53 342.269,1182.94 344.022,1178.36 345.775,1173.81 347.529,1169.26 349.282,1164.74 351.035,1160.23 
  352.789,1155.74 354.542,1151.26 356.295,1146.8 358.049,1142.36 359.802,1137.94 361.555,1133.53 363.309,1129.14 365.062,1124.78 366.815,1120.43 368.569,1116.1 
  370.322,1111.78 372.075,1107.49 373.829,1103.22 375.582,1098.97 377.335,1094.73 379.089,1090.52 380.842,1086.33 382.595,1082.16 384.349,1078.01 386.102,1073.88 
  387.855,1069.77 389.609,1065.69 391.362,1061.62 393.115,1057.58 394.868,1053.56 396.622,1049.56 398.375,1045.59 400.128,1041.64 401.882,1037.71 403.635,1033.8 
  405.388,1029.92 407.142,1026.06 408.895,1022.23 410.648,1018.42 412.402,1014.63 414.155,1010.87 415.908,1007.13 417.662,1003.42 419.415,999.735 421.168,996.072 
  422.922,992.435 424.675,988.824 426.428,985.237 428.182,981.677 429.935,978.143 431.688,974.634 433.442,971.152 435.195,967.697 436.948,964.267 438.701,960.865 
  440.455,957.489 442.208,954.141 443.961,950.819 445.715,947.525 447.468,944.258 449.221,941.019 450.975,937.807 452.728,934.623 454.481,931.467 456.235,928.339 
  457.988,925.239 459.741,922.168 461.495,919.125 463.248,916.11 465.001,913.124 466.755,910.167 468.508,907.238 470.261,904.339 472.015,901.469 473.768,898.627 
  475.521,895.815 477.275,893.033 479.028,890.279 480.781,887.555 482.535,884.861 484.288,882.197 486.041,879.562 487.794,876.957 489.548,874.382 491.301,871.837 
  493.054,869.322 494.808,866.837 496.561,864.382 498.314,861.958 500.068,859.564 501.821,857.2 503.574,854.866 505.328,852.564 507.081,850.291 508.834,848.049 
  510.588,845.838 512.341,843.657 514.094,841.507 515.848,839.388 517.601,837.3 519.354,835.242 521.108,833.215 522.861,831.219 524.614,829.254 526.368,827.32 
  528.121,825.416 529.874,823.544 531.628,821.702 533.381,819.892 535.134,818.112 536.887,816.363 538.641,814.646 540.394,812.959 542.147,811.303 543.901,809.678 
  545.654,808.084 547.407,806.521 549.161,804.989 550.914,803.488 552.667,802.017 554.421,800.578 556.174,799.169 557.927,797.792 559.681,796.445 561.434,795.129 
  563.187,793.843 564.941,792.588 566.694,791.364 568.447,790.171 570.201,789.008 571.954,787.876 573.707,786.774 575.461,785.703 577.214,784.662 578.967,783.651 
  580.72,782.671 582.474,781.721 584.227,780.801 585.98,779.912 587.734,779.052 589.487,778.223 591.24,777.423 592.994,776.653 594.747,775.913 596.5,775.203 
  598.254,774.522 600.007,773.871 601.76,773.25 603.514,772.657 605.267,772.095 607.02,771.561 608.774,771.057 610.527,770.581 612.28,770.135 614.034,769.717 
  615.787,769.329 617.54,768.969 619.294,768.637 621.047,768.334 622.8,768.06 624.554,767.813 626.307,767.595 628.06,767.405 629.813,767.243 631.567,767.109 
  633.32,767.002 635.073,766.923 636.827,766.872 638.58,766.848 640.333,766.851 642.087,766.881 643.84,766.938 645.593,767.023 647.347,767.133 649.1,767.271 
  650.853,767.435 652.607,767.626 654.36,767.842 656.113,768.085 657.867,768.354 659.62,768.648 661.373,768.969 663.127,769.315 664.88,769.686 666.633,770.082 
  668.387,770.504 670.14,770.95 671.893,771.422 673.646,771.918 675.4,772.439 677.153,772.984 678.906,773.553 680.66,774.146 682.413,774.763 684.166,775.404 
  685.92,776.069 687.673,776.757 689.426,777.468 691.18,778.203 692.933,778.96 694.686,779.741 696.44,780.543 698.193,781.369 699.946,782.217 701.7,783.086 
  703.453,783.978 705.206,784.892 706.96,785.827 708.713,786.784 710.466,787.762 712.22,788.761 713.973,789.782 715.726,790.823 717.48,791.884 719.233,792.966 
  720.986,794.069 722.739,795.191 724.493,796.334 726.246,797.496 727.999,798.677 729.753,799.878 731.506,801.099 733.259,802.338 735.013,803.596 736.766,804.873 
  738.519,806.168 740.273,807.482 742.026,808.814 743.779,810.164 745.533,811.531 747.286,812.916 749.039,814.319 750.793,815.739 752.546,817.175 754.299,818.629 
  756.053,820.099 757.806,821.586 759.559,823.089 761.313,824.608 763.066,826.143 764.819,827.694 766.572,829.26 768.326,830.842 770.079,832.439 771.832,834.051 
  773.586,835.678 775.339,837.319 777.092,838.975 778.846,840.645 780.599,842.329 782.352,844.027 784.106,845.739 785.859,847.464 787.612,849.203 789.366,850.954 
  791.119,852.719 792.872,854.496 794.626,856.286 796.379,858.089 798.132,859.903 799.886,861.73 801.639,863.568 803.392,865.419 805.146,867.28 806.899,869.153 
  808.652,871.037 810.406,872.932 812.159,874.837 813.912,876.754 815.665,878.68 817.419,880.617 819.172,882.563 820.925,884.52 822.679,886.486 824.432,888.462 
  826.185,890.447 827.939,892.441 829.692,894.444 831.445,896.455 833.199,898.476 834.952,900.504 836.705,902.541 838.459,904.586 840.212,906.638 841.965,908.699 
  843.719,910.767 845.472,912.842 847.225,914.924 848.979,917.014 850.732,919.11 852.485,921.212 854.239,923.322 855.992,925.437 857.745,927.559 859.499,929.686 
  861.252,931.82 863.005,933.959 864.758,936.103 866.512,938.253 868.265,940.408 870.018,942.567 871.772,944.732 873.525,946.901 875.278,949.075 877.032,951.253 
  878.785,953.435 880.538,955.621 882.292,957.811 884.045,960.004 885.798,962.201 887.552,964.402 889.305,966.605 891.058,968.812 892.812,971.021 894.565,973.233 
  896.318,975.448 898.072,977.665 899.825,979.885 901.578,982.106 903.332,984.33 905.085,986.555 906.838,988.782 908.591,991.01 910.345,993.24 912.098,995.471 
  913.851,997.704 915.605,999.937 917.358,1002.17 919.111,1004.41 920.865,1006.64 922.618,1008.88 924.371,1011.11 926.125,1013.35 927.878,1015.58 929.631,1017.82 
  931.385,1020.06 933.138,1022.29 934.891,1024.53 936.645,1026.76 938.398,1028.99 940.151,1031.22 941.905,1033.46 943.658,1035.69 945.411,1037.91 947.165,1040.14 
  948.918,1042.37 950.671,1044.59 952.425,1046.81 954.178,1049.03 955.931,1051.25 957.684,1053.47 959.438,1055.68 961.191,1057.89 962.944,1060.1 964.698,1062.31 
  966.451,1064.51 968.204,1066.71 969.958,1068.91 971.711,1071.11 973.464,1073.3 975.218,1075.49 976.971,1077.67 978.724,1079.85 980.478,1082.03 982.231,1084.21 
  983.984,1086.38 985.738,1088.54 987.491,1090.71 989.244,1092.87 990.998,1095.02 992.751,1097.17 994.504,1099.32 996.258,1101.46 998.011,1103.6 999.764,1105.73 
  1001.52,1107.86 1003.27,1109.98 1005.02,1112.1 1006.78,1114.21 1008.53,1116.32 1010.28,1118.43 1012.04,1120.52 1013.79,1122.62 1015.54,1124.7 1017.3,1126.79 
  1019.05,1128.86 1020.8,1130.93 1022.56,1133 1024.31,1135.06 1026.06,1137.11 1027.82,1139.16 1029.57,1141.2 1031.32,1143.24 1033.08,1145.27 1034.83,1147.29 
  1036.58,1149.31 1038.34,1151.32 1040.09,1153.32 1041.84,1155.32 1043.6,1157.32 1045.35,1159.3 1047.1,1161.28 1048.86,1163.25 1050.61,1165.22 1052.36,1167.18 
  1054.12,1169.13 1055.87,1171.07 1057.62,1173.01 1059.38,1174.94 1061.13,1176.87 1062.88,1178.78 1064.64,1180.69 1066.39,1182.6 1068.14,1184.49 1069.9,1186.38 
  1071.65,1188.26 1073.4,1190.13 1075.16,1192 1076.91,1193.86 1078.66,1195.71 1080.42,1197.55 1082.17,1199.39 1083.92,1201.22 1085.68,1203.04 1087.43,1204.85 
  1089.18,1206.66 1090.94,1208.45 1092.69,1210.24 1094.44,1212.03 1096.2,1213.8 1097.95,1215.57 1099.7,1217.32 1101.46,1219.08 1103.21,1220.82 1104.96,1222.55 
  1106.72,1224.28 1108.47,1226 1110.22,1227.71 1111.98,1229.41 1113.73,1231.1 1115.48,1232.79 1117.24,1234.47 1118.99,1236.14 1120.74,1237.8 1122.5,1239.45 
  1124.25,1241.1 1126,1242.74 1127.76,1244.36 1129.51,1245.98 1131.26,1247.6 1133.02,1249.2 1134.77,1250.8 1136.52,1252.38 1138.28,1253.96 1140.03,1255.53 
  1141.78,1257.09 1143.54,1258.65 1145.29,1260.19 1147.04,1261.73 1148.8,1263.26 1150.55,1264.78 1152.3,1266.29 1154.06,1267.79 1155.81,1269.29 1157.56,1270.78 
  1159.32,1272.25 1161.07,1273.72 1162.82,1275.19 1164.58,1276.64 1166.33,1278.08 1168.08,1279.52 1169.84,1280.95 1171.59,1282.37 1173.34,1283.78 1175.1,1285.18 
  1176.85,1286.57 1178.6,1287.96 1180.36,1289.34 1182.11,1290.71 1183.86,1292.07 1185.62,1293.42 1187.37,1294.76 1189.12,1296.1 1190.88,1297.43 1192.63,1298.75 
  1194.38,1300.06 1196.14,1301.36 1197.89,1302.65 1199.64,1303.94 1201.4,1305.22 1203.15,1306.49 1204.9,1307.75 1206.66,1309 1208.41,1310.24 1210.16,1311.48 
  1211.92,1312.71 1213.67,1313.93 1215.42,1315.14 1217.18,1316.34 1218.93,1317.54 1220.68,1318.73 1222.44,1319.91 1224.19,1321.08 1225.94,1322.24 1227.7,1323.4 
  1229.45,1324.55 1231.2,1325.68 1232.96,1326.82 1234.71,1327.94 1236.46,1329.06 1238.22,1330.16 1239.97,1331.26 1241.72,1332.36 1243.48,1333.44 1245.23,1334.52 
  1246.98,1335.58 1248.74,1336.65 1250.49,1337.7 1252.24,1338.74 1254,1339.78 1255.75,1340.81 1257.5,1341.83 1259.26,1342.85 1261.01,1343.86 1262.76,1344.86 
  1264.52,1345.85 1266.27,1346.83 1268.02,1347.81 1269.78,1348.78 1271.53,1349.74 1273.28,1350.7 1275.04,1351.65 1276.79,1352.59 1278.54,1353.52 1280.3,1354.45 
  1282.05,1355.37 1283.8,1356.28 1285.56,1357.18 1287.31,1358.08 1289.06,1358.97 1290.82,1359.85 1292.57,1360.73 1294.32,1361.6 1296.08,1362.46 1297.83,1363.31 
  1299.58,1364.16 1301.34,1365 1303.09,1365.84 1304.84,1366.67 1306.6,1367.49 1308.35,1368.3 1310.1,1369.11 1311.86,1369.91 1313.61,1370.7 1315.36,1371.49 
  1317.12,1372.27 1318.87,1373.04 1320.62,1373.81 1322.38,1374.57 1324.13,1375.33 1325.88,1376.08 1327.64,1376.82 1329.39,1377.55 1331.14,1378.28 1332.9,1379.01 
  1334.65,1379.72 1336.4,1380.43 1338.16,1381.14 1339.91,1381.83 1341.66,1382.53 1343.42,1383.21 1345.17,1383.89 1346.92,1384.57 1348.68,1385.23 1350.43,1385.9 
  1352.18,1386.55 1353.93,1387.2 1355.69,1387.85 1357.44,1388.48 1359.19,1389.12 1360.95,1389.74 1362.7,1390.37 1364.45,1390.98 1366.21,1391.59 1367.96,1392.2 
  1369.71,1392.79 1371.47,1393.39 1373.22,1393.98 1374.97,1394.56 1376.73,1395.13 1378.48,1395.71 1380.23,1396.27 1381.99,1396.83 1383.74,1397.39 1385.49,1397.94 
  1387.25,1398.48 1389,1399.02 1390.75,1399.56 1392.51,1400.09 1394.26,1400.61 1396.01,1401.13 1397.77,1401.65 1399.52,1402.16 1401.27,1402.66 1403.03,1403.16 
  1404.78,1403.66 1406.53,1404.15 1408.29,1404.63 1410.04,1405.11 1411.79,1405.59 1413.55,1406.06 1415.3,1406.53 1417.05,1406.99 1418.81,1407.45 1420.56,1407.9 
  1422.31,1408.35 1424.07,1408.79 1425.82,1409.23 1427.57,1409.67 1429.33,1410.1 1431.08,1410.52 1432.83,1410.94 1434.59,1411.36 1436.34,1411.77 1438.09,1412.18 
  1439.85,1412.59 1441.6,1412.99 1443.35,1413.39 1445.11,1413.78 1446.86,1414.17 1448.61,1414.55 1450.37,1414.93 1452.12,1415.31 1453.87,1415.68 1455.63,1416.05 
  1457.38,1416.41 1459.13,1416.77 1460.89,1417.13 1462.64,1417.48 1464.39,1417.83 1466.15,1418.18 1467.9,1418.52 1469.65,1418.86 1471.41,1419.19 1473.16,1419.53 
  1474.91,1419.85 1476.67,1420.18 1478.42,1420.5 1480.17,1420.81 1481.93,1421.13 1483.68,1421.44 1485.43,1421.75 1487.19,1422.05 1488.94,1422.35 1490.69,1422.65 
  1492.45,1422.94 1494.2,1423.23 1495.95,1423.52 1497.71,1423.8 1499.46,1424.08 1501.21,1424.36 1502.97,1424.63 1504.72,1424.91 1506.47,1425.17 1508.23,1425.44 
  1509.98,1425.7 1511.73,1425.96 1513.49,1426.22 1515.24,1426.47 1516.99,1426.72 1518.75,1426.97 1520.5,1427.22 1522.25,1427.46 1524.01,1427.7 1525.76,1427.93 
  1527.51,1428.17 1529.27,1428.4 1531.02,1428.63 1532.77,1428.85 1534.53,1429.08 1536.28,1429.3 1538.03,1429.52 1539.79,1429.73 1541.54,1429.95 1543.29,1430.16 
  1545.05,1430.36 1546.8,1430.57 1548.55,1430.77 1550.31,1430.97 1552.06,1431.17 1553.81,1431.37 1555.57,1431.56 1557.32,1431.75 1559.07,1431.94 1560.83,1432.13 
  1562.58,1432.31 1564.33,1432.5 1566.09,1432.68 1567.84,1432.86 1569.59,1433.03 1571.35,1433.2 1573.1,1433.38 1574.85,1433.55 1576.61,1433.71 1578.36,1433.88 
  1580.11,1434.04 1581.87,1434.2 1583.62,1434.36 1585.37,1434.52 1587.13,1434.68 1588.88,1434.83 1590.63,1434.98 1592.39,1435.13 1594.14,1435.28 1595.89,1435.43 
  1597.65,1435.57 1599.4,1435.71 1601.15,1435.85 1602.91,1435.99 1604.66,1436.13 1606.41,1436.26 1608.17,1436.4 1609.92,1436.53 1611.67,1436.66 1613.43,1436.79 
  1615.18,1436.92 1616.93,1437.04 1618.69,1437.17 1620.44,1437.29 1622.19,1437.41 1623.95,1437.53 1625.7,1437.65 1627.45,1437.76 1629.21,1437.88 1630.96,1437.99 
  1632.71,1438.1 1634.47,1438.21 1636.22,1438.32 1637.97,1438.43 1639.73,1438.53 1641.48,1438.64 1643.23,1438.74 1644.99,1438.84 1646.74,1438.94 1648.49,1439.04 
  1650.25,1439.14 1652,1439.24 1653.75,1439.33 1655.51,1439.43 1657.26,1439.52 1659.01,1439.61 1660.77,1439.7 1662.52,1439.79 1664.27,1439.88 1666.03,1439.96 
  1667.78,1440.05 1669.53,1440.13 1671.29,1440.22 1673.04,1440.3 1674.79,1440.38 1676.55,1440.46 1678.3,1440.54 1680.05,1440.62 1681.81,1440.69 1683.56,1440.77 
  1685.31,1440.84 1687.07,1440.92 1688.82,1440.99 1690.57,1441.06 1692.33,1441.13 1694.08,1441.2 1695.83,1441.27 1697.59,1441.34 1699.34,1441.41 1701.09,1441.47 
  1702.85,1441.54 1704.6,1441.6 1706.35,1441.66 1708.11,1441.73 1709.86,1441.79 1711.61,1441.85 1713.37,1441.91 1715.12,1441.97 1716.87,1442.02 1718.63,1442.08 
  1720.38,1442.14 1722.13,1442.19 1723.89,1442.25 1725.64,1442.3 1727.39,1442.36 1729.15,1442.41 1730.9,1442.46 1732.65,1442.51 1734.41,1442.56 1736.16,1442.61 
  1737.91,1442.66 1739.67,1442.71 1741.42,1442.75 1743.17,1442.8 1744.93,1442.85 1746.68,1442.89 1748.43,1442.94 1750.19,1442.98 1751.94,1443.03 1753.69,1443.07 
  1755.45,1443.11 1757.2,1443.15 1758.95,1443.19 1760.71,1443.23 1762.46,1443.27 1764.21,1443.31 1765.97,1443.35 1767.72,1443.39 1769.47,1443.43 1771.23,1443.46 
  1772.98,1443.5 1774.73,1443.54 1776.49,1443.57 1778.24,1443.61 1779.99,1443.64 1781.75,1443.67 1783.5,1443.71 1785.25,1443.74 1787.01,1443.77 1788.76,1443.8 
  1790.51,1443.83 1792.27,1443.87 1794.02,1443.9 1795.77,1443.93 1797.53,1443.95 1799.28,1443.98 1801.03,1444.01 1802.79,1444.04 1804.54,1444.07 1806.29,1444.1 
  1808.05,1444.12 1809.8,1444.15 1811.55,1444.17 1813.31,1444.2 1815.06,1444.23 1816.81,1444.25 1818.57,1444.27 1820.32,1444.3 1822.07,1444.32 1823.82,1444.35 
  1825.58,1444.37 1827.33,1444.39 1829.08,1444.41 1830.84,1444.44 1832.59,1444.46 1834.34,1444.48 1836.1,1444.5 1837.85,1444.52 1839.6,1444.54 1841.36,1444.56 
  1843.11,1444.58 1844.86,1444.6 1846.62,1444.62 1848.37,1444.64 1850.12,1444.66 1851.88,1444.67 1853.63,1444.69 1855.38,1444.71 1857.14,1444.73 1858.89,1444.74 
  1860.64,1444.76 1862.4,1444.78 1864.15,1444.79 1865.9,1444.81 1867.66,1444.82 1869.41,1444.84 1871.16,1444.85 1872.92,1444.87 1874.67,1444.88 1876.42,1444.9 
  1878.18,1444.91 1879.93,1444.93 1881.68,1444.94 1883.44,1444.95 1885.19,1444.97 1886.94,1444.98 1888.7,1444.99 1890.45,1445.01 1892.2,1445.02 1893.96,1445.03 
  1895.71,1445.04 1897.46,1445.05 1899.22,1445.07 1900.97,1445.08 1902.72,1445.09 1904.48,1445.1 1906.23,1445.11 1907.98,1445.12 1909.74,1445.13 1911.49,1445.14 
  1913.24,1445.15 1915,1445.16 1916.75,1445.17 1918.5,1445.18 1920.26,1445.19 1922.01,1445.2 1923.76,1445.21 1925.52,1445.22 1927.27,1445.23 1929.02,1445.24 
  1930.78,1445.25 1932.53,1445.25 1934.28,1445.26 1936.04,1445.27 1937.79,1445.28 1939.54,1445.29 1941.3,1445.29 1943.05,1445.3 1944.8,1445.31 1946.56,1445.32 
  1948.31,1445.32 1950.06,1445.33 1951.82,1445.34 1953.57,1445.35 1955.32,1445.35 1957.08,1445.36 1958.83,1445.37 1960.58,1445.37 1962.34,1445.38 1964.09,1445.38 
  1965.84,1445.39 1967.6,1445.4 1969.35,1445.4 1971.1,1445.41 1972.86,1445.41 1974.61,1445.42 1976.36,1445.43 1978.12,1445.43 1979.87,1445.44 1981.62,1445.44 
  1983.38,1445.45 1985.13,1445.45 1986.88,1445.46 1988.64,1445.46 1990.39,1445.47 1992.14,1445.47 1993.9,1445.48 1995.65,1445.48 1997.4,1445.48 1999.16,1445.49 
  
  "></polyline>
<polyline clip-path="url(#clip172)" style="stroke:#3da44d; stroke-linecap:round; stroke-linejoin:round; stroke-width:4; stroke-opacity:1; fill:none" points="
  249.446,1399.18 254.577,1356.31 259.708,1301.69 264.839,1241.19 269.97,1178.19 275.101,1115.51 280.232,1057.42 285.363,1006.09 290.494,959.044 295.625,911.625 
  300.756,861.611 305.887,810.567 311.018,760.727 316.149,713.093 321.28,668.582 326.411,628.542 331.541,591.762 336.672,553.858 341.803,512.96 346.934,471.47 
  352.065,431.859 357.196,394.923 362.327,359.977 367.458,326.095 372.589,294.857 377.72,266.549 382.851,235.766 387.982,200.253 393.113,167.235 398.244,145.788 
  403.375,136.744 408.506,130.621 413.637,119.541 418.768,107.595 423.899,102.497 429.03,103.366 434.161,102.558 439.292,97.4314 444.423,94.3396 449.554,97.153 
  454.684,100.115 459.815,97.6138 464.946,93.0137 470.077,93.7963 475.208,103.876 480.339,122.849 485.47,148.058 490.601,174.117 495.732,193.717 500.863,204.082 
  505.994,211.823 511.125,225.658 516.256,245.886 521.387,267.084 526.518,286.535 531.649,305.69 536.78,327.943 541.911,354.44 547.042,381.007 552.173,402.94 
  557.304,421.705 562.435,443.039 567.566,470 572.697,501.546 577.827,535.937 582.958,570.551 588.089,601.465 593.22,627.911 598.351,651.679 603.482,673.011 
  608.613,692.662 613.744,714.251 618.875,740.847 624.006,769.611 629.137,794.953 634.268,817.398 639.399,840.833 644.53,865.017 649.661,888.731 654.792,913.369 
  659.923,937.996 665.054,958.082 670.185,972.719 675.316,986.178 680.447,1002.75 685.578,1024.18 690.709,1048.9 695.84,1073.28 700.971,1095 706.101,1114.05 
  711.232,1130.38 716.363,1143.64 721.494,1154.89 726.625,1166.01 731.756,1177.2 736.887,1187.24 742.018,1196.77 747.149,1208.8 752.28,1224.9 757.411,1243.02 
  762.542,1259.59 767.673,1272.19 772.804,1280.42 777.935,1285.93 783.066,1292.4 788.197,1303.15 793.328,1317.57 798.459,1331.34 803.59,1341.3 808.721,1347.88 
  813.852,1352.5 818.983,1356.14 824.114,1360.25 829.244,1365.52 834.375,1371.27 839.506,1376.76 844.637,1381.65 849.768,1386.04 854.899,1390.5 860.03,1395.22 
  865.161,1399.43 870.292,1402.35 875.423,1404.37 880.554,1406.51 885.685,1409.24 890.816,1412.4 895.947,1415.62 901.078,1418.54 906.209,1420.76 911.34,1422.07 
  916.471,1422.85 921.602,1423.76 926.733,1424.79 931.864,1425.57 936.995,1426.57 942.126,1428.53 947.257,1431.05 952.387,1433.18 957.518,1434.61 962.649,1435.67 
  967.78,1436.47 972.911,1436.96 978.042,1437.39 983.173,1438.16 988.304,1439.12 993.435,1439.73 998.566,1439.9 1003.7,1440.02 1008.83,1440.45 1013.96,1441.14 
  1019.09,1441.81 1024.22,1442.27 1029.35,1442.55 1034.48,1442.76 1039.61,1443.02 1044.74,1443.43 1049.88,1443.94 1055.01,1444.36 1060.14,1444.51 1065.27,1444.42 
  1070.4,1444.23 1075.53,1444.13 1080.66,1444.2 1085.79,1444.34 1090.92,1444.45 1096.05,1444.54 1101.19,1444.69 1106.32,1444.9 1111.45,1445.11 1116.58,1445.26 
  1121.71,1445.33 1126.84,1445.34 1131.97,1445.29 1137.1,1445.22 1142.23,1445.21 1147.36,1445.26 1152.49,1445.32 1157.63,1445.37 1162.76,1445.4 1167.89,1445.4 
  1173.02,1445.4 1178.15,1445.45 1183.28,1445.5 1188.41,1445.47 1193.54,1445.33 1198.67,1445.16 1203.8,1445.13 1208.94,1445.27 
  "></polyline>
<polyline clip-path="url(#clip172)" style="stroke:#c271d2; stroke-linecap:round; stroke-linejoin:round; stroke-width:4; stroke-opacity:1; fill:none" points="
  247.59,1445.72 248.642,1433.69 249.694,1421.67 250.746,1409.64 251.797,1397.63 252.849,1385.61 253.901,1373.6 254.953,1361.6 256.005,1349.6 257.057,1337.61 
  258.109,1325.64 259.161,1313.67 260.213,1301.71 261.265,1289.77 262.317,1277.84 263.369,1265.92 264.421,1254.02 265.473,1242.14 266.525,1230.27 267.577,1218.42 
  268.629,1206.59 269.681,1194.79 270.733,1183 271.785,1171.24 272.837,1159.5 273.889,1147.78 274.941,1136.09 275.993,1124.43 277.045,1112.8 278.097,1101.19 
  279.149,1089.61 280.201,1078.07 281.253,1066.55 282.305,1055.07 283.357,1043.62 284.409,1032.21 285.461,1020.83 286.513,1009.48 287.565,998.178 288.617,986.911 
  289.669,975.683 290.721,964.494 291.773,953.347 292.825,942.242 293.877,931.18 294.929,920.161 295.981,909.187 297.033,898.258 298.085,887.376 299.137,876.541 
  300.189,865.755 301.241,855.017 302.293,844.329 303.345,833.692 304.397,823.106 305.449,812.573 306.501,802.093 307.553,791.667 308.605,781.296 309.657,770.98 
  310.709,760.721 311.761,750.519 312.813,740.376 313.865,730.291 314.917,720.265 315.969,710.3 317.021,700.396 318.073,690.554 319.125,680.775 320.177,671.058 
  321.229,661.406 322.281,651.818 323.333,642.296 324.385,632.84 325.437,623.451 326.489,614.129 327.541,604.875 328.593,595.69 329.645,586.574 330.697,577.528 
  331.749,568.553 332.801,559.65 333.853,550.818 334.905,542.058 335.957,533.372 337.009,524.759 338.061,516.221 339.113,507.757 340.165,499.368 341.217,491.055 
  342.269,482.819 343.321,474.66 344.373,466.577 345.425,458.573 346.477,450.647 347.529,442.8 348.581,435.032 349.633,427.344 350.685,419.736 351.737,412.209 
  352.789,404.763 353.841,397.398 354.893,390.115 355.945,382.914 356.997,375.796 358.049,368.761 359.101,361.81 360.153,354.941 361.205,348.157 362.257,341.458 
  363.309,334.843 364.361,328.313 365.413,321.868 366.465,315.509 367.517,309.236 368.569,303.048 369.621,296.947 370.673,290.933 371.725,285.005 372.777,279.165 
  373.829,273.412 374.881,267.746 375.933,262.168 376.985,256.677 378.037,251.275 379.089,245.96 380.141,240.734 381.193,235.596 382.245,230.547 383.297,225.587 
  384.349,220.715 385.401,215.932 386.453,211.237 387.505,206.632 388.557,202.116 389.609,197.689 390.661,193.351 391.713,189.102 392.764,184.942 393.816,180.871 
  394.868,176.89 395.92,172.998 396.972,169.194 398.024,165.48 399.076,161.855 400.128,158.319 401.18,154.872 402.232,151.514 403.284,148.244 404.336,145.063 
  405.388,141.971 406.44,138.967 407.492,136.051 408.544,133.223 409.596,130.484 410.648,127.832 411.7,125.269 412.752,122.792 413.804,120.403 414.856,118.102 
  415.908,115.887 416.96,113.759 418.012,111.718 419.064,109.763 420.116,107.894 421.168,106.111 422.22,104.413 423.272,102.801 424.324,101.274 425.376,99.8314 
  426.428,98.4736 427.48,97.2001 428.532,96.0104 429.584,94.9043 430.636,93.8815 431.688,92.9416 432.74,92.0844 433.792,91.3094 434.844,90.6163 435.896,90.0048 
  436.948,89.4745 438,89.025 439.052,88.656 440.104,88.367 441.156,88.1576 442.208,88.0275 443.26,87.9763 444.312,88.0035 445.364,88.1086 446.416,88.2914 
  447.468,88.5513 448.52,88.8878 449.572,89.3007 450.624,89.7893 451.676,90.3532 452.728,90.992 453.78,91.7052 454.832,92.4923 455.884,93.3528 456.936,94.2862 
  457.988,95.2921 459.04,96.3698 460.092,97.519 461.144,98.7391 462.196,100.03 463.248,101.39 464.3,102.82 465.352,104.318 466.404,105.885 467.456,107.519 
  468.508,109.221 469.56,110.989 470.612,112.824 471.664,114.723 472.716,116.688 473.768,118.717 474.82,120.81 475.872,122.967 476.924,125.185 477.976,127.466 
  479.028,129.809 480.08,132.212 481.132,134.675 482.184,137.199 483.236,139.781 484.288,142.422 485.34,145.12 486.392,147.876 487.444,150.689 488.496,153.558 
  489.548,156.482 490.6,159.461 491.652,162.494 492.704,165.58 493.756,168.72 494.808,171.912 495.86,175.156 496.912,178.451 497.964,181.796 499.016,185.191 
  500.068,188.635 501.12,192.127 502.172,195.668 503.224,199.256 504.276,202.89 505.328,206.571 506.38,210.296 507.432,214.067 508.484,217.881 509.536,221.739 
  510.588,225.64 511.64,229.583 512.692,233.567 513.744,237.592 514.796,241.657 515.848,245.762 516.9,249.906 517.952,254.088 519.004,258.308 520.056,262.564 
  521.108,266.857 522.16,271.186 523.212,275.55 524.264,279.948 525.316,284.38 526.368,288.845 527.42,293.342 528.472,297.872 529.524,302.432 530.576,307.023 
  531.628,311.644 532.679,316.295 533.731,320.974 534.783,325.681 535.835,330.416 536.887,335.178 537.939,339.966 538.991,344.779 540.043,349.617 541.095,354.48 
  542.147,359.366 543.199,364.276 544.251,369.208 545.303,374.162 546.355,379.137 547.407,384.133 548.459,389.149 549.511,394.184 550.563,399.239 551.615,404.312 
  552.667,409.402 553.719,414.51 554.771,419.634 555.823,424.774 556.875,429.929 557.927,435.1 558.979,440.284 560.031,445.483 561.083,450.694 562.135,455.918 
  563.187,461.154 564.239,466.401 565.291,471.66 566.343,476.928 567.395,482.207 568.447,487.495 569.499,492.791 570.551,498.096 571.603,503.408 572.655,508.727 
  573.707,514.053 574.759,519.385 575.811,524.723 576.863,530.066 577.915,535.413 578.967,540.765 580.019,546.12 581.071,551.478 582.123,556.839 583.175,562.201 
  584.227,567.566 585.279,572.931 586.331,578.297 587.383,583.664 588.435,589.03 589.487,594.395 590.539,599.759 591.591,605.122 592.643,610.483 593.695,615.841 
  594.747,621.196 595.799,626.547 596.851,631.895 597.903,637.238 598.955,642.577 600.007,647.911 601.059,653.24 602.111,658.562 603.163,663.878 604.215,669.187 
  605.267,674.49 606.319,679.785 607.371,685.072 608.423,690.35 609.475,695.621 610.527,700.882 611.579,706.134 612.631,711.376 613.683,716.608 614.735,721.829 
  615.787,727.04 616.839,732.24 617.891,737.428 618.943,742.605 619.995,747.77 621.047,752.922 622.099,758.061 623.151,763.187 624.203,768.3 625.255,773.4 
  626.307,778.485 627.359,783.556 628.411,788.613 629.463,793.654 630.515,798.681 631.567,803.692 632.619,808.688 633.671,813.668 634.723,818.631 635.775,823.578 
  636.827,828.509 637.879,833.422 638.931,838.319 639.983,843.197 641.035,848.059 642.087,852.902 643.139,857.727 644.191,862.534 645.243,867.323 646.295,872.093 
  647.347,876.843 648.399,881.575 649.451,886.287 650.503,890.98 651.555,895.653 652.607,900.306 653.659,904.938 654.711,909.551 655.763,914.143 656.815,918.715 
  657.867,923.265 658.919,927.795 659.971,932.304 661.023,936.791 662.075,941.257 663.127,945.702 664.179,950.125 665.231,954.526 666.283,958.905 667.335,963.262 
  668.387,967.597 669.439,971.909 670.491,976.199 671.543,980.467 672.595,984.712 673.646,988.934 674.698,993.133 675.75,997.309 676.802,1001.46 677.854,1005.59 
  678.906,1009.7 679.958,1013.78 681.01,1017.84 682.062,1021.88 683.114,1025.89 684.166,1029.88 685.218,1033.85 686.27,1037.79 687.322,1041.71 688.374,1045.61 
  689.426,1049.48 690.478,1053.32 691.53,1057.15 692.582,1060.95 693.634,1064.72 694.686,1068.47 695.738,1072.2 696.79,1075.9 697.842,1079.58 698.894,1083.24 
  699.946,1086.87 700.998,1090.47 702.05,1094.05 703.102,1097.61 704.154,1101.15 705.206,1104.66 706.258,1108.14 707.31,1111.6 708.362,1115.04 709.414,1118.45 
  710.466,1121.84 711.518,1125.2 712.57,1128.54 713.622,1131.86 714.674,1135.15 715.726,1138.42 716.778,1141.66 717.83,1144.88 718.882,1148.08 719.934,1151.25 
  720.986,1154.4 722.038,1157.52 723.09,1160.62 724.142,1163.7 725.194,1166.75 726.246,1169.78 727.298,1172.78 728.35,1175.76 729.402,1178.72 730.454,1181.66 
  731.506,1184.57 732.558,1187.45 733.61,1190.32 734.662,1193.16 735.714,1195.98 736.766,1198.77 737.818,1201.54 738.87,1204.29 739.922,1207.01 740.974,1209.72 
  742.026,1212.4 743.078,1215.05 744.13,1217.69 745.182,1220.3 746.234,1222.89 747.286,1225.45 748.338,1228 749.39,1230.52 750.442,1233.02 751.494,1235.5 
  752.546,1237.95 753.598,1240.39 754.65,1242.8 755.702,1245.19 756.754,1247.56 757.806,1249.91 758.858,1252.23 759.91,1254.54 760.962,1256.82 762.014,1259.08 
  763.066,1261.33 764.118,1263.55 765.17,1265.75 766.222,1267.93 767.274,1270.08 768.326,1272.22 769.378,1274.34 770.43,1276.44 771.482,1278.51 772.534,1280.57 
  773.586,1282.61 774.638,1284.63 775.69,1286.62 776.742,1288.6 777.794,1290.56 778.846,1292.5 779.898,1294.42 780.95,1296.32 782.002,1298.2 783.054,1300.06 
  784.106,1301.91 785.158,1303.73 786.21,1305.54 787.262,1307.33 788.314,1309.1 789.366,1310.85 790.418,1312.58 791.47,1314.3 792.522,1316 793.574,1317.68 
  794.626,1319.34 795.678,1320.98 796.73,1322.61 797.782,1324.22 798.834,1325.81 799.886,1327.39 800.938,1328.95 801.99,1330.49 803.042,1332.01 804.094,1333.52 
  805.146,1335.02 806.198,1336.49 807.25,1337.95 808.302,1339.4 809.354,1340.82 810.406,1342.24 811.458,1343.63 812.51,1345.01 813.561,1346.38 814.613,1347.73 
  815.665,1349.06 816.717,1350.38 817.769,1351.69 818.821,1352.98 819.873,1354.25 820.925,1355.51 821.977,1356.76 823.029,1357.99 824.081,1359.21 825.133,1360.41 
  826.185,1361.6 827.237,1362.77 828.289,1363.94 829.341,1365.08 830.393,1366.22 831.445,1367.34 832.497,1368.45 833.549,1369.54 834.601,1370.62 835.653,1371.69 
  836.705,1372.74 837.757,1373.79 838.809,1374.82 839.861,1375.83 840.913,1376.84 841.965,1377.83 843.017,1378.81 844.069,1379.78 845.121,1380.74 846.173,1381.68 
  847.225,1382.62 848.277,1383.54 849.329,1384.45 850.381,1385.35 851.433,1386.23 852.485,1387.11 853.537,1387.97 854.589,1388.83 855.641,1389.67 856.693,1390.5 
  857.745,1391.33 858.797,1392.14 859.849,1392.94 860.901,1393.73 861.953,1394.51 863.005,1395.28 864.057,1396.04 865.109,1396.79 866.161,1397.53 867.213,1398.26 
  868.265,1398.98 869.317,1399.69 870.369,1400.4 871.421,1401.09 872.473,1401.77 873.525,1402.45 874.577,1403.11 875.629,1403.77 876.681,1404.42 877.733,1405.06 
  878.785,1405.69 879.837,1406.31 880.889,1406.92 881.941,1407.53 882.993,1408.13 884.045,1408.72 885.097,1409.3 886.149,1409.87 887.201,1410.43 888.253,1410.99 
  889.305,1411.54 890.357,1412.08 891.409,1412.62 892.461,1413.14 893.513,1413.66 894.565,1414.17 895.617,1414.68 896.669,1415.18 897.721,1415.67 898.773,1416.15 
  899.825,1416.63 900.877,1417.1 901.929,1417.56 902.981,1418.02 904.033,1418.47 905.085,1418.91 906.137,1419.35 907.189,1419.78 908.241,1420.21 909.293,1420.62 
  910.345,1421.04 911.397,1421.44 912.449,1421.84 913.501,1422.24 914.553,1422.63 915.605,1423.01 916.657,1423.39 917.709,1423.76 918.761,1424.13 919.813,1424.49 
  920.865,1424.84 921.917,1425.19 922.969,1425.54 924.021,1425.88 925.073,1426.21 926.125,1426.54 927.177,1426.87 928.229,1427.19 929.281,1427.5 930.333,1427.81 
  931.385,1428.12 932.437,1428.42 933.489,1428.71 934.541,1429.01 935.593,1429.29 936.645,1429.58 937.697,1429.85 938.749,1430.13 939.801,1430.4 940.853,1430.66 
  941.905,1430.92 942.957,1431.18 944.009,1431.43 945.061,1431.68 946.113,1431.93 947.165,1432.17 948.217,1432.41 949.269,1432.64 950.321,1432.87 951.373,1433.1 
  952.425,1433.32 953.477,1433.54 954.528,1433.76 955.58,1433.97 956.632,1434.18 957.684,1434.38 958.736,1434.59 959.788,1434.79 960.84,1434.98 961.892,1435.17 
  962.944,1435.36 963.996,1435.55 965.048,1435.73 966.1,1435.91 967.152,1436.09 968.204,1436.27 969.256,1436.44 970.308,1436.61 971.36,1436.77 972.412,1436.93 
  973.464,1437.1 974.516,1437.25 975.568,1437.41 976.62,1437.56 977.672,1437.71 978.724,1437.86 979.776,1438 980.828,1438.15 981.88,1438.29 982.932,1438.42 
  983.984,1438.56 985.036,1438.69 986.088,1438.82 987.14,1438.95 988.192,1439.08 989.244,1439.2 990.296,1439.33 991.348,1439.45 992.4,1439.56 993.452,1439.68 
  994.504,1439.79 995.556,1439.91 996.608,1440.02 997.66,1440.12 998.712,1440.23 999.764,1440.33 1000.82,1440.44 1001.87,1440.54 1002.92,1440.64 1003.97,1440.73 
  1005.02,1440.83 1006.08,1440.92 1007.13,1441.02 1008.18,1441.11 1009.23,1441.2 1010.28,1441.28 1011.34,1441.37 1012.39,1441.45 1013.44,1441.54 1014.49,1441.62 
  1015.54,1441.7 1016.6,1441.78 1017.65,1441.85 1018.7,1441.93 1019.75,1442 1020.8,1442.08 1021.86,1442.15 1022.91,1442.22 1023.96,1442.29 1025.01,1442.35 
  1026.06,1442.42 1027.12,1442.49 1028.17,1442.55 1029.22,1442.61 1030.27,1442.67 1031.32,1442.74 1032.38,1442.79 1033.43,1442.85 1034.48,1442.91 1035.53,1442.97 
  1036.58,1443.02 1037.64,1443.08 1038.69,1443.13 1039.74,1443.18 1040.79,1443.23 1041.84,1443.28 1042.9,1443.33 1043.95,1443.38 1045,1443.43 1046.05,1443.47 
  1047.1,1443.52 1048.16,1443.57 1049.21,1443.61 1050.26,1443.65 1051.31,1443.69 1052.36,1443.74 1053.42,1443.78 1054.47,1443.82 1055.52,1443.86 1056.57,1443.89 
  1057.62,1443.93 1058.68,1443.97 1059.73,1444.01 1060.78,1444.04 1061.83,1444.08 1062.88,1444.11 1063.94,1444.14 1064.99,1444.18 1066.04,1444.21 1067.09,1444.24 
  1068.14,1444.27 1069.2,1444.3 1070.25,1444.33 1071.3,1444.36 1072.35,1444.39 1073.4,1444.42 1074.46,1444.44 1075.51,1444.47 1076.56,1444.5 1077.61,1444.52 
  1078.66,1444.55 1079.72,1444.57 1080.77,1444.6 1081.82,1444.62 1082.87,1444.65 1083.92,1444.67 1084.98,1444.69 1086.03,1444.71 1087.08,1444.73 1088.13,1444.76 
  1089.18,1444.78 1090.24,1444.8 1091.29,1444.82 1092.34,1444.84 1093.39,1444.86 1094.44,1444.87 1095.5,1444.89 1096.55,1444.91 1097.6,1444.93 1098.65,1444.95 
  1099.7,1444.96 1100.76,1444.98 1101.81,1444.99 1102.86,1445.01 1103.91,1445.03 1104.96,1445.04 1106.02,1445.06 1107.07,1445.07 1108.12,1445.08 1109.17,1445.1 
  1110.22,1445.11 1111.28,1445.13 1112.33,1445.14 1113.38,1445.15 1114.43,1445.16 1115.48,1445.18 1116.54,1445.19 1117.59,1445.2 1118.64,1445.21 1119.69,1445.22 
  1120.74,1445.23 1121.8,1445.25 1122.85,1445.26 1123.9,1445.27 1124.95,1445.28 1126,1445.29 1127.06,1445.3 1128.11,1445.31 1129.16,1445.31 1130.21,1445.32 
  1131.26,1445.33 1132.32,1445.34 1133.37,1445.35 1134.42,1445.36 1135.47,1445.37 1136.52,1445.37 1137.58,1445.38 1138.63,1445.39 1139.68,1445.4 1140.73,1445.41 
  1141.78,1445.41 1142.84,1445.42 1143.89,1445.43 1144.94,1445.43 1145.99,1445.44 1147.04,1445.45 1148.1,1445.45 1149.15,1445.46 1150.2,1445.46 1151.25,1445.47 
  1152.3,1445.48 1153.36,1445.48 1154.41,1445.49 1155.46,1445.49 1156.51,1445.5 1157.56,1445.5 1158.62,1445.51 1159.67,1445.51 1160.72,1445.52 1161.77,1445.52 
  1162.82,1445.53 1163.88,1445.53 1164.93,1445.54 1165.98,1445.54 1167.03,1445.54 1168.08,1445.55 1169.13,1445.55 1170.19,1445.56 1171.24,1445.56 1172.29,1445.56 
  1173.34,1445.57 1174.39,1445.57 1175.45,1445.57 1176.5,1445.58 1177.55,1445.58 1178.6,1445.58 1179.65,1445.59 1180.71,1445.59 1181.76,1445.59 1182.81,1445.6 
  1183.86,1445.6 1184.91,1445.6 1185.97,1445.6 1187.02,1445.61 1188.07,1445.61 1189.12,1445.61 1190.17,1445.62 1191.23,1445.62 1192.28,1445.62 1193.33,1445.62 
  1194.38,1445.62 1195.43,1445.63 1196.49,1445.63 1197.54,1445.63 1198.59,1445.63 1199.64,1445.64 1200.69,1445.64 1201.75,1445.64 1202.8,1445.64 1203.85,1445.64 
  1204.9,1445.64 1205.95,1445.65 1207.01,1445.65 1208.06,1445.65 1209.11,1445.65 1210.16,1445.65 1211.21,1445.65 1212.27,1445.66 1213.32,1445.66 1214.37,1445.66 
  1215.42,1445.66 1216.47,1445.66 1217.53,1445.66 1218.58,1445.66 1219.63,1445.67 1220.68,1445.67 1221.73,1445.67 1222.79,1445.67 1223.84,1445.67 1224.89,1445.67 
  1225.94,1445.67 1226.99,1445.67 1228.05,1445.68 1229.1,1445.68 1230.15,1445.68 1231.2,1445.68 1232.25,1445.68 1233.31,1445.68 1234.36,1445.68 1235.41,1445.68 
  1236.46,1445.68 1237.51,1445.68 1238.57,1445.68 1239.62,1445.69 1240.67,1445.69 1241.72,1445.69 1242.77,1445.69 1243.83,1445.69 1244.88,1445.69 1245.93,1445.69 
  1246.98,1445.69 1248.03,1445.69 1249.09,1445.69 1250.14,1445.69 1251.19,1445.69 1252.24,1445.69 1253.29,1445.69 1254.35,1445.69 1255.4,1445.7 1256.45,1445.7 
  1257.5,1445.7 1258.55,1445.7 1259.61,1445.7 1260.66,1445.7 1261.71,1445.7 1262.76,1445.7 1263.81,1445.7 1264.87,1445.7 1265.92,1445.7 1266.97,1445.7 
  1268.02,1445.7 1269.07,1445.7 1270.13,1445.7 1271.18,1445.7 1272.23,1445.7 1273.28,1445.7 1274.33,1445.7 1275.39,1445.7 1276.44,1445.7 1277.49,1445.7 
  1278.54,1445.7 1279.59,1445.7 1280.65,1445.7 1281.7,1445.71 1282.75,1445.71 1283.8,1445.71 1284.85,1445.71 1285.91,1445.71 1286.96,1445.71 1288.01,1445.71 
  1289.06,1445.71 1290.11,1445.71 1291.17,1445.71 1292.22,1445.71 1293.27,1445.71 1294.32,1445.71 1295.37,1445.71 1296.43,1445.71 1297.48,1445.71 1298.53,1445.71 
  
  "></polyline>
<path clip-path="url(#clip170)" d="
M1438.32 354.418 L2280.54 354.418 L2280.54 95.2176 L1438.32 95.2176  Z
  " fill="#ffffff" fill-rule="evenodd" fill-opacity="1"></path>
<polyline clip-path="url(#clip170)" style="stroke:#000000; stroke-linecap:round; stroke-linejoin:round; stroke-width:4; stroke-opacity:1; fill:none" points="
  1438.32,354.418 2280.54,354.418 2280.54,95.2176 1438.32,95.2176 1438.32,354.418 
  "></polyline>
<polyline clip-path="url(#clip170)" style="stroke:#009af9; stroke-linecap:round; stroke-linejoin:round; stroke-width:4; stroke-opacity:1; fill:none" points="
  1462.39,147.058 1606.82,147.058 
  "></polyline>
<path clip-path="url(#clip170)" d="M1638.3 131.051 L1638.3 138.412 L1647.07 138.412 L1647.07 141.722 L1638.3 141.722 L1638.3 155.796 Q1638.3 158.967 1639.16 159.87 Q1640.04 160.773 1642.7 160.773 L1647.07 160.773 L1647.07 164.338 L1642.7 164.338 Q1637.77 164.338 1635.89 162.509 Q1634.02 160.657 1634.02 155.796 L1634.02 141.722 L1630.89 141.722 L1630.89 138.412 L1634.02 138.412 L1634.02 131.051 L1638.3 131.051 Z" fill="#000000" fill-rule="evenodd" fill-opacity="1"></path><path clip-path="url(#clip170)" d="M1656.15 149.824 Q1656.31 151.537 1657.77 154.314 Q1659.48 157.532 1662.72 159.338 Q1665.89 161.097 1669.32 161.12 L1685.45 161.12 L1685.45 164.801 L1669.32 164.801 Q1664.87 164.801 1660.75 162.509 Q1656.66 160.217 1654.46 156.143 Q1652.26 152.069 1652.26 147.74 Q1652.26 143.458 1654.46 139.384 Q1656.66 135.31 1660.75 132.995 Q1664.87 130.68 1669.32 130.68 L1685.45 130.68 L1685.45 134.361 L1669.32 134.361 Q1665.89 134.384 1662.72 136.166 Q1659.5 137.995 1657.77 141.19 Q1656.29 143.967 1656.08 146.12 L1685.45 146.12 L1685.45 149.824 L1656.15 149.824 Z" fill="#000000" fill-rule="evenodd" fill-opacity="1"></path><path clip-path="url(#clip170)" d="M1704.2 128.366 Q1701.1 133.69 1699.6 138.898 Q1698.09 144.106 1698.09 149.453 Q1698.09 154.801 1699.6 160.055 Q1701.12 165.287 1704.2 170.588 L1700.5 170.588 Q1697.03 165.148 1695.29 159.893 Q1693.58 154.639 1693.58 149.453 Q1693.58 144.291 1695.29 139.06 Q1697 133.828 1700.5 128.366 L1704.2 128.366 Z" fill="#000000" fill-rule="evenodd" fill-opacity="1"></path><path clip-path="url(#clip170)" d="M1713.11 129.778 L1731.47 129.778 L1731.47 133.713 L1717.4 133.713 L1717.4 142.185 Q1718.42 141.838 1719.43 141.676 Q1720.45 141.49 1721.47 141.49 Q1727.26 141.49 1730.64 144.662 Q1734.02 147.833 1734.02 153.25 Q1734.02 158.828 1730.54 161.93 Q1727.07 165.009 1720.75 165.009 Q1718.58 165.009 1716.31 164.638 Q1714.06 164.268 1711.66 163.527 L1711.66 158.828 Q1713.74 159.963 1715.96 160.518 Q1718.18 161.074 1720.66 161.074 Q1724.67 161.074 1727 158.967 Q1729.34 156.861 1729.34 153.25 Q1729.34 149.639 1727 147.532 Q1724.67 145.426 1720.66 145.426 Q1718.79 145.426 1716.91 145.842 Q1715.06 146.259 1713.11 147.139 L1713.11 129.778 Z" fill="#000000" fill-rule="evenodd" fill-opacity="1"></path><path clip-path="url(#clip170)" d="M1743.23 158.458 L1748.11 158.458 L1748.11 164.338 L1743.23 164.338 L1743.23 158.458 Z" fill="#000000" fill-rule="evenodd" fill-opacity="1"></path><path clip-path="url(#clip170)" d="M1768.3 132.856 Q1764.69 132.856 1762.86 136.421 Q1761.05 139.963 1761.05 147.092 Q1761.05 154.199 1762.86 157.764 Q1764.69 161.305 1768.3 161.305 Q1771.93 161.305 1773.74 157.764 Q1775.57 154.199 1775.57 147.092 Q1775.57 139.963 1773.74 136.421 Q1771.93 132.856 1768.3 132.856 M1768.3 129.153 Q1774.11 129.153 1777.16 133.759 Q1780.24 138.342 1780.24 147.092 Q1780.24 155.819 1777.16 160.426 Q1774.11 165.009 1768.3 165.009 Q1762.49 165.009 1759.41 160.426 Q1756.35 155.819 1756.35 147.092 Q1756.35 138.342 1759.41 133.759 Q1762.49 129.153 1768.3 129.153 Z" fill="#000000" fill-rule="evenodd" fill-opacity="1"></path><path clip-path="url(#clip170)" d="M1788.95 158.458 L1793.83 158.458 L1793.83 162.439 L1790.04 169.847 L1787.05 169.847 L1788.95 162.439 L1788.95 158.458 Z" fill="#000000" fill-rule="evenodd" fill-opacity="1"></path><path clip-path="url(#clip170)" d="M1804.34 160.402 L1811.98 160.402 L1811.98 134.037 L1803.67 135.703 L1803.67 131.444 L1811.93 129.778 L1816.61 129.778 L1816.61 160.402 L1824.25 160.402 L1824.25 164.338 L1804.34 164.338 L1804.34 160.402 Z" fill="#000000" fill-rule="evenodd" fill-opacity="1"></path><path clip-path="url(#clip170)" d="M1843.69 132.856 Q1840.08 132.856 1838.25 136.421 Q1836.45 139.963 1836.45 147.092 Q1836.45 154.199 1838.25 157.764 Q1840.08 161.305 1843.69 161.305 Q1847.33 161.305 1849.13 157.764 Q1850.96 154.199 1850.96 147.092 Q1850.96 139.963 1849.13 136.421 Q1847.33 132.856 1843.69 132.856 M1843.69 129.153 Q1849.5 129.153 1852.56 133.759 Q1855.64 138.342 1855.64 147.092 Q1855.64 155.819 1852.56 160.426 Q1849.5 165.009 1843.69 165.009 Q1837.88 165.009 1834.8 160.426 Q1831.75 155.819 1831.75 147.092 Q1831.75 138.342 1834.8 133.759 Q1837.88 129.153 1843.69 129.153 Z" fill="#000000" fill-rule="evenodd" fill-opacity="1"></path><path clip-path="url(#clip170)" d="M1863.85 158.458 L1868.74 158.458 L1868.74 164.338 L1863.85 164.338 L1863.85 158.458 Z" fill="#000000" fill-rule="evenodd" fill-opacity="1"></path><path clip-path="url(#clip170)" d="M1888.92 132.856 Q1885.31 132.856 1883.48 136.421 Q1881.68 139.963 1881.68 147.092 Q1881.68 154.199 1883.48 157.764 Q1885.31 161.305 1888.92 161.305 Q1892.56 161.305 1894.36 157.764 Q1896.19 154.199 1896.19 147.092 Q1896.19 139.963 1894.36 136.421 Q1892.56 132.856 1888.92 132.856 M1888.92 129.153 Q1894.73 129.153 1897.79 133.759 Q1900.87 138.342 1900.87 147.092 Q1900.87 155.819 1897.79 160.426 Q1894.73 165.009 1888.92 165.009 Q1883.11 165.009 1880.03 160.426 Q1876.98 155.819 1876.98 147.092 Q1876.98 138.342 1880.03 133.759 Q1883.11 129.153 1888.92 129.153 Z" fill="#000000" fill-rule="evenodd" fill-opacity="1"></path><path clip-path="url(#clip170)" d="M1907.81 128.366 L1911.52 128.366 Q1914.99 133.828 1916.7 139.06 Q1918.44 144.291 1918.44 149.453 Q1918.44 154.639 1916.7 159.893 Q1914.99 165.148 1911.52 170.588 L1907.81 170.588 Q1910.89 165.287 1912.4 160.055 Q1913.92 154.801 1913.92 149.453 Q1913.92 144.106 1912.4 138.898 Q1910.89 133.69 1907.81 128.366 Z" fill="#000000" fill-rule="evenodd" fill-opacity="1"></path><path clip-path="url(#clip170)" d="M1928.07 158.458 L1932.95 158.458 L1932.95 162.439 L1929.15 169.847 L1926.17 169.847 L1928.07 162.439 L1928.07 158.458 Z" fill="#000000" fill-rule="evenodd" fill-opacity="1"></path><path clip-path="url(#clip170)" d="M1963.6 148.689 L1963.6 164.338 L1959.34 164.338 L1959.34 148.828 Q1959.34 145.148 1957.9 143.319 Q1956.47 141.49 1953.6 141.49 Q1950.15 141.49 1948.16 143.69 Q1946.17 145.889 1946.17 149.685 L1946.17 164.338 L1941.89 164.338 L1941.89 138.412 L1946.17 138.412 L1946.17 142.44 Q1947.7 140.102 1949.76 138.944 Q1951.84 137.787 1954.55 137.787 Q1959.02 137.787 1961.31 140.565 Q1963.6 143.319 1963.6 148.689 Z" fill="#000000" fill-rule="evenodd" fill-opacity="1"></path><path clip-path="url(#clip170)" d="M1972.65 142.81 L2002.33 142.81 L2002.33 146.699 L1972.65 146.699 L1972.65 142.81 M1972.65 152.254 L2002.33 152.254 L2002.33 156.189 L1972.65 156.189 L1972.65 152.254 Z" fill="#000000" fill-rule="evenodd" fill-opacity="1"></path><path clip-path="url(#clip170)" d="M2013.23 160.402 L2020.87 160.402 L2020.87 134.037 L2012.56 135.703 L2012.56 131.444 L2020.82 129.778 L2025.5 129.778 L2025.5 160.402 L2033.14 160.402 L2033.14 164.338 L2013.23 164.338 L2013.23 160.402 Z" fill="#000000" fill-rule="evenodd" fill-opacity="1"></path><path clip-path="url(#clip170)" d="M2052.58 132.856 Q2048.97 132.856 2047.14 136.421 Q2045.33 139.963 2045.33 147.092 Q2045.33 154.199 2047.14 157.764 Q2048.97 161.305 2052.58 161.305 Q2056.21 161.305 2058.02 157.764 Q2059.85 154.199 2059.85 147.092 Q2059.85 139.963 2058.02 136.421 Q2056.21 132.856 2052.58 132.856 M2052.58 129.153 Q2058.39 129.153 2061.45 133.759 Q2064.52 138.342 2064.52 147.092 Q2064.52 155.819 2061.45 160.426 Q2058.39 165.009 2052.58 165.009 Q2046.77 165.009 2043.69 160.426 Q2040.64 155.819 2040.64 147.092 Q2040.64 138.342 2043.69 133.759 Q2046.77 129.153 2052.58 129.153 Z" fill="#000000" fill-rule="evenodd" fill-opacity="1"></path><path clip-path="url(#clip170)" d="M2082.74 132.856 Q2079.13 132.856 2077.3 136.421 Q2075.5 139.963 2075.5 147.092 Q2075.5 154.199 2077.3 157.764 Q2079.13 161.305 2082.74 161.305 Q2086.38 161.305 2088.18 157.764 Q2090.01 154.199 2090.01 147.092 Q2090.01 139.963 2088.18 136.421 Q2086.38 132.856 2082.74 132.856 M2082.74 129.153 Q2088.55 129.153 2091.61 133.759 Q2094.69 138.342 2094.69 147.092 Q2094.69 155.819 2091.61 160.426 Q2088.55 165.009 2082.74 165.009 Q2076.93 165.009 2073.85 160.426 Q2070.8 155.819 2070.8 147.092 Q2070.8 138.342 2073.85 133.759 Q2076.93 129.153 2082.74 129.153 Z" fill="#000000" fill-rule="evenodd" fill-opacity="1"></path><path clip-path="url(#clip170)" d="M2112.9 132.856 Q2109.29 132.856 2107.46 136.421 Q2105.66 139.963 2105.66 147.092 Q2105.66 154.199 2107.46 157.764 Q2109.29 161.305 2112.9 161.305 Q2116.54 161.305 2118.34 157.764 Q2120.17 154.199 2120.17 147.092 Q2120.17 139.963 2118.34 136.421 Q2116.54 132.856 2112.9 132.856 M2112.9 129.153 Q2118.71 129.153 2121.77 133.759 Q2124.85 138.342 2124.85 147.092 Q2124.85 155.819 2121.77 160.426 Q2118.71 165.009 2112.9 165.009 Q2107.09 165.009 2104.01 160.426 Q2100.96 155.819 2100.96 147.092 Q2100.96 138.342 2104.01 133.759 Q2107.09 129.153 2112.9 129.153 Z" fill="#000000" fill-rule="evenodd" fill-opacity="1"></path><path clip-path="url(#clip170)" d="M2133.55 158.458 L2138.44 158.458 L2138.44 162.439 L2134.64 169.847 L2131.65 169.847 L2133.55 162.439 L2133.55 158.458 Z" fill="#000000" fill-rule="evenodd" fill-opacity="1"></path><path clip-path="url(#clip170)" d="M2167.72 143.389 Q2169.32 140.518 2171.54 139.153 Q2173.76 137.787 2176.77 137.787 Q2180.82 137.787 2183.02 140.634 Q2185.22 143.458 2185.22 148.689 L2185.22 164.338 L2180.94 164.338 L2180.94 148.828 Q2180.94 145.102 2179.62 143.296 Q2178.3 141.49 2175.59 141.49 Q2172.28 141.49 2170.36 143.69 Q2168.44 145.889 2168.44 149.685 L2168.44 164.338 L2164.15 164.338 L2164.15 148.828 Q2164.15 145.078 2162.83 143.296 Q2161.51 141.49 2158.76 141.49 Q2155.5 141.49 2153.57 143.713 Q2151.65 145.912 2151.65 149.685 L2151.65 164.338 L2147.37 164.338 L2147.37 138.412 L2151.65 138.412 L2151.65 142.44 Q2153.11 140.055 2155.15 138.921 Q2157.19 137.787 2159.99 137.787 Q2162.81 137.787 2164.78 139.222 Q2166.77 140.657 2167.72 143.389 Z" fill="#000000" fill-rule="evenodd" fill-opacity="1"></path><path clip-path="url(#clip170)" d="M2194.27 142.81 L2223.94 142.81 L2223.94 146.699 L2194.27 146.699 L2194.27 142.81 M2194.27 152.254 L2223.94 152.254 L2223.94 156.189 L2194.27 156.189 L2194.27 152.254 Z" fill="#000000" fill-rule="evenodd" fill-opacity="1"></path><path clip-path="url(#clip170)" d="M2234.85 160.402 L2242.49 160.402 L2242.49 134.037 L2234.18 135.703 L2234.18 131.444 L2242.44 129.778 L2247.12 129.778 L2247.12 160.402 L2254.75 160.402 L2254.75 164.338 L2234.85 164.338 L2234.85 160.402 Z" fill="#000000" fill-rule="evenodd" fill-opacity="1"></path><polyline clip-path="url(#clip170)" style="stroke:#e26f46; stroke-linecap:round; stroke-linejoin:round; stroke-width:4; stroke-opacity:1; fill:none" points="
  1462.39,198.898 1606.82,198.898 
  "></polyline>
<path clip-path="url(#clip170)" d="M1630.89 181.618 L1637.86 181.618 L1646.68 205.136 L1655.55 181.618 L1662.51 181.618 L1662.51 216.178 L1657.95 216.178 L1657.95 185.83 L1649.04 209.534 L1644.34 209.534 L1635.43 185.83 L1635.43 216.178 L1630.89 216.178 L1630.89 181.618 Z" fill="#000000" fill-rule="evenodd" fill-opacity="1"></path><path clip-path="url(#clip170)" d="M1676.47 199.673 L1676.47 212.335 L1683.97 212.335 Q1687.74 212.335 1689.55 210.784 Q1691.38 209.21 1691.38 205.992 Q1691.38 202.752 1689.55 201.224 Q1687.74 199.673 1683.97 199.673 L1676.47 199.673 M1676.47 185.46 L1676.47 195.877 L1683.39 195.877 Q1686.82 195.877 1688.48 194.604 Q1690.17 193.307 1690.17 190.668 Q1690.17 188.053 1688.48 186.756 Q1686.82 185.46 1683.39 185.46 L1676.47 185.46 M1671.8 181.618 L1683.74 181.618 Q1689.09 181.618 1691.98 183.84 Q1694.87 186.062 1694.87 190.159 Q1694.87 193.33 1693.39 195.205 Q1691.91 197.08 1689.04 197.543 Q1692.49 198.284 1694.39 200.645 Q1696.31 202.983 1696.31 206.502 Q1696.31 211.131 1693.16 213.654 Q1690.01 216.178 1684.2 216.178 L1671.8 216.178 L1671.8 181.618 Z" fill="#000000" fill-rule="evenodd" fill-opacity="1"></path><path clip-path="url(#clip170)" d="M1708.99 185.46 L1708.99 212.335 L1714.64 212.335 Q1721.79 212.335 1725.1 209.094 Q1728.44 205.854 1728.44 198.863 Q1728.44 191.918 1725.1 188.701 Q1721.79 185.46 1714.64 185.46 L1708.99 185.46 M1704.32 181.618 L1713.92 181.618 Q1723.97 181.618 1728.67 185.807 Q1733.37 189.974 1733.37 198.863 Q1733.37 207.798 1728.65 211.988 Q1723.92 216.178 1713.92 216.178 L1704.32 216.178 L1704.32 181.618 Z" fill="#000000" fill-rule="evenodd" fill-opacity="1"></path><path clip-path="url(#clip170)" d="M1741.73 210.298 L1746.61 210.298 L1746.61 214.279 L1742.81 221.687 L1739.83 221.687 L1741.73 214.279 L1741.73 210.298 Z" fill="#000000" fill-rule="evenodd" fill-opacity="1"></path><path clip-path="url(#clip170)" d="M1775.89 195.229 Q1777.49 192.358 1779.71 190.993 Q1781.93 189.627 1784.94 189.627 Q1788.99 189.627 1791.19 192.474 Q1793.39 195.298 1793.39 200.529 L1793.39 216.178 L1789.11 216.178 L1789.11 200.668 Q1789.11 196.942 1787.79 195.136 Q1786.47 193.33 1783.76 193.33 Q1780.45 193.33 1778.53 195.53 Q1776.61 197.729 1776.61 201.525 L1776.61 216.178 L1772.33 216.178 L1772.33 200.668 Q1772.33 196.918 1771.01 195.136 Q1769.69 193.33 1766.93 193.33 Q1763.67 193.33 1761.75 195.553 Q1759.83 197.752 1759.83 201.525 L1759.83 216.178 L1755.54 216.178 L1755.54 190.252 L1759.83 190.252 L1759.83 194.28 Q1761.29 191.895 1763.32 190.761 Q1765.36 189.627 1768.16 189.627 Q1770.98 189.627 1772.95 191.062 Q1774.94 192.497 1775.89 195.229 Z" fill="#000000" fill-rule="evenodd" fill-opacity="1"></path><path clip-path="url(#clip170)" d="M1802.44 194.65 L1832.12 194.65 L1832.12 198.539 L1802.44 198.539 L1802.44 194.65 M1802.44 204.094 L1832.12 204.094 L1832.12 208.029 L1802.44 208.029 L1802.44 204.094 Z" fill="#000000" fill-rule="evenodd" fill-opacity="1"></path><path clip-path="url(#clip170)" d="M1843.02 212.242 L1850.66 212.242 L1850.66 185.877 L1842.35 187.543 L1842.35 183.284 L1850.61 181.618 L1855.29 181.618 L1855.29 212.242 L1862.93 212.242 L1862.93 216.178 L1843.02 216.178 L1843.02 212.242 Z" fill="#000000" fill-rule="evenodd" fill-opacity="1"></path><polyline clip-path="url(#clip170)" style="stroke:#3da44d; stroke-linecap:round; stroke-linejoin:round; stroke-width:4; stroke-opacity:1; fill:none" points="
  1462.39,250.738 1606.82,250.738 
  "></polyline>
<path clip-path="url(#clip170)" d="M1638.3 234.731 L1638.3 242.092 L1647.07 242.092 L1647.07 245.402 L1638.3 245.402 L1638.3 259.476 Q1638.3 262.647 1639.16 263.55 Q1640.04 264.453 1642.7 264.453 L1647.07 264.453 L1647.07 268.018 L1642.7 268.018 Q1637.77 268.018 1635.89 266.189 Q1634.02 264.337 1634.02 259.476 L1634.02 245.402 L1630.89 245.402 L1630.89 242.092 L1634.02 242.092 L1634.02 234.731 L1638.3 234.731 Z" fill="#000000" fill-rule="evenodd" fill-opacity="1"></path><path clip-path="url(#clip170)" d="M1656.15 253.504 Q1656.31 255.217 1657.77 257.994 Q1659.48 261.212 1662.72 263.018 Q1665.89 264.777 1669.32 264.8 L1685.45 264.8 L1685.45 268.481 L1669.32 268.481 Q1664.87 268.481 1660.75 266.189 Q1656.66 263.897 1654.46 259.823 Q1652.26 255.749 1652.26 251.42 Q1652.26 247.138 1654.46 243.064 Q1656.66 238.99 1660.75 236.675 Q1664.87 234.36 1669.32 234.36 L1685.45 234.36 L1685.45 238.041 L1669.32 238.041 Q1665.89 238.064 1662.72 239.846 Q1659.5 241.675 1657.77 244.87 Q1656.29 247.647 1656.08 249.8 L1685.45 249.8 L1685.45 253.504 L1656.15 253.504 Z" fill="#000000" fill-rule="evenodd" fill-opacity="1"></path><path clip-path="url(#clip170)" d="M1704.2 232.046 Q1701.1 237.37 1699.6 242.578 Q1698.09 247.786 1698.09 253.133 Q1698.09 258.481 1699.6 263.735 Q1701.12 268.967 1704.2 274.268 L1700.5 274.268 Q1697.03 268.828 1695.29 263.573 Q1693.58 258.319 1693.58 253.133 Q1693.58 247.971 1695.29 242.74 Q1697 237.508 1700.5 232.046 L1704.2 232.046 Z" fill="#000000" fill-rule="evenodd" fill-opacity="1"></path><path clip-path="url(#clip170)" d="M1713.11 233.458 L1731.47 233.458 L1731.47 237.393 L1717.4 237.393 L1717.4 245.865 Q1718.42 245.518 1719.43 245.356 Q1720.45 245.17 1721.47 245.17 Q1727.26 245.17 1730.64 248.342 Q1734.02 251.513 1734.02 256.93 Q1734.02 262.508 1730.54 265.61 Q1727.07 268.689 1720.75 268.689 Q1718.58 268.689 1716.31 268.318 Q1714.06 267.948 1711.66 267.207 L1711.66 262.508 Q1713.74 263.643 1715.96 264.198 Q1718.18 264.754 1720.66 264.754 Q1724.67 264.754 1727 262.647 Q1729.34 260.541 1729.34 256.93 Q1729.34 253.319 1727 251.212 Q1724.67 249.106 1720.66 249.106 Q1718.79 249.106 1716.91 249.522 Q1715.06 249.939 1713.11 250.819 L1713.11 233.458 Z" fill="#000000" fill-rule="evenodd" fill-opacity="1"></path><path clip-path="url(#clip170)" d="M1743.23 262.138 L1748.11 262.138 L1748.11 268.018 L1743.23 268.018 L1743.23 262.138 Z" fill="#000000" fill-rule="evenodd" fill-opacity="1"></path><path clip-path="url(#clip170)" d="M1768.3 236.536 Q1764.69 236.536 1762.86 240.101 Q1761.05 243.643 1761.05 250.772 Q1761.05 257.879 1762.86 261.444 Q1764.69 264.985 1768.3 264.985 Q1771.93 264.985 1773.74 261.444 Q1775.57 257.879 1775.57 250.772 Q1775.57 243.643 1773.74 240.101 Q1771.93 236.536 1768.3 236.536 M1768.3 232.833 Q1774.11 232.833 1777.16 237.439 Q1780.24 242.022 1780.24 250.772 Q1780.24 259.499 1777.16 264.106 Q1774.11 268.689 1768.3 268.689 Q1762.49 268.689 1759.41 264.106 Q1756.35 259.499 1756.35 250.772 Q1756.35 242.022 1759.41 237.439 Q1762.49 232.833 1768.3 232.833 Z" fill="#000000" fill-rule="evenodd" fill-opacity="1"></path><path clip-path="url(#clip170)" d="M1788.95 262.138 L1793.83 262.138 L1793.83 266.119 L1790.04 273.527 L1787.05 273.527 L1788.95 266.119 L1788.95 262.138 Z" fill="#000000" fill-rule="evenodd" fill-opacity="1"></path><path clip-path="url(#clip170)" d="M1804.34 264.082 L1811.98 264.082 L1811.98 237.717 L1803.67 239.383 L1803.67 235.124 L1811.93 233.458 L1816.61 233.458 L1816.61 264.082 L1824.25 264.082 L1824.25 268.018 L1804.34 268.018 L1804.34 264.082 Z" fill="#000000" fill-rule="evenodd" fill-opacity="1"></path><path clip-path="url(#clip170)" d="M1843.69 236.536 Q1840.08 236.536 1838.25 240.101 Q1836.45 243.643 1836.45 250.772 Q1836.45 257.879 1838.25 261.444 Q1840.08 264.985 1843.69 264.985 Q1847.33 264.985 1849.13 261.444 Q1850.96 257.879 1850.96 250.772 Q1850.96 243.643 1849.13 240.101 Q1847.33 236.536 1843.69 236.536 M1843.69 232.833 Q1849.5 232.833 1852.56 237.439 Q1855.64 242.022 1855.64 250.772 Q1855.64 259.499 1852.56 264.106 Q1849.5 268.689 1843.69 268.689 Q1837.88 268.689 1834.8 264.106 Q1831.75 259.499 1831.75 250.772 Q1831.75 242.022 1834.8 237.439 Q1837.88 232.833 1843.69 232.833 Z" fill="#000000" fill-rule="evenodd" fill-opacity="1"></path><path clip-path="url(#clip170)" d="M1863.85 262.138 L1868.74 262.138 L1868.74 268.018 L1863.85 268.018 L1863.85 262.138 Z" fill="#000000" fill-rule="evenodd" fill-opacity="1"></path><path clip-path="url(#clip170)" d="M1888.92 236.536 Q1885.31 236.536 1883.48 240.101 Q1881.68 243.643 1881.68 250.772 Q1881.68 257.879 1883.48 261.444 Q1885.31 264.985 1888.92 264.985 Q1892.56 264.985 1894.36 261.444 Q1896.19 257.879 1896.19 250.772 Q1896.19 243.643 1894.36 240.101 Q1892.56 236.536 1888.92 236.536 M1888.92 232.833 Q1894.73 232.833 1897.79 237.439 Q1900.87 242.022 1900.87 250.772 Q1900.87 259.499 1897.79 264.106 Q1894.73 268.689 1888.92 268.689 Q1883.11 268.689 1880.03 264.106 Q1876.98 259.499 1876.98 250.772 Q1876.98 242.022 1880.03 237.439 Q1883.11 232.833 1888.92 232.833 Z" fill="#000000" fill-rule="evenodd" fill-opacity="1"></path><path clip-path="url(#clip170)" d="M1907.81 232.046 L1911.52 232.046 Q1914.99 237.508 1916.7 242.74 Q1918.44 247.971 1918.44 253.133 Q1918.44 258.319 1916.7 263.573 Q1914.99 268.828 1911.52 274.268 L1907.81 274.268 Q1910.89 268.967 1912.4 263.735 Q1913.92 258.481 1913.92 253.133 Q1913.92 247.786 1912.4 242.578 Q1910.89 237.37 1907.81 232.046 Z" fill="#000000" fill-rule="evenodd" fill-opacity="1"></path><path clip-path="url(#clip170)" d="M1928.07 262.138 L1932.95 262.138 L1932.95 266.119 L1929.15 273.527 L1926.17 273.527 L1928.07 266.119 L1928.07 262.138 Z" fill="#000000" fill-rule="evenodd" fill-opacity="1"></path><path clip-path="url(#clip170)" d="M1963.6 252.369 L1963.6 268.018 L1959.34 268.018 L1959.34 252.508 Q1959.34 248.828 1957.9 246.999 Q1956.47 245.17 1953.6 245.17 Q1950.15 245.17 1948.16 247.37 Q1946.17 249.569 1946.17 253.365 L1946.17 268.018 L1941.89 268.018 L1941.89 242.092 L1946.17 242.092 L1946.17 246.12 Q1947.7 243.782 1949.76 242.624 Q1951.84 241.467 1954.55 241.467 Q1959.02 241.467 1961.31 244.245 Q1963.6 246.999 1963.6 252.369 Z" fill="#000000" fill-rule="evenodd" fill-opacity="1"></path><path clip-path="url(#clip170)" d="M1972.65 246.49 L2002.33 246.49 L2002.33 250.379 L1972.65 250.379 L1972.65 246.49 M1972.65 255.934 L2002.33 255.934 L2002.33 259.869 L1972.65 259.869 L1972.65 255.934 Z" fill="#000000" fill-rule="evenodd" fill-opacity="1"></path><path clip-path="url(#clip170)" d="M2013.23 264.082 L2020.87 264.082 L2020.87 237.717 L2012.56 239.383 L2012.56 235.124 L2020.82 233.458 L2025.5 233.458 L2025.5 264.082 L2033.14 264.082 L2033.14 268.018 L2013.23 268.018 L2013.23 264.082 Z" fill="#000000" fill-rule="evenodd" fill-opacity="1"></path><path clip-path="url(#clip170)" d="M2052.58 236.536 Q2048.97 236.536 2047.14 240.101 Q2045.33 243.643 2045.33 250.772 Q2045.33 257.879 2047.14 261.444 Q2048.97 264.985 2052.58 264.985 Q2056.21 264.985 2058.02 261.444 Q2059.85 257.879 2059.85 250.772 Q2059.85 243.643 2058.02 240.101 Q2056.21 236.536 2052.58 236.536 M2052.58 232.833 Q2058.39 232.833 2061.45 237.439 Q2064.52 242.022 2064.52 250.772 Q2064.52 259.499 2061.45 264.106 Q2058.39 268.689 2052.58 268.689 Q2046.77 268.689 2043.69 264.106 Q2040.64 259.499 2040.64 250.772 Q2040.64 242.022 2043.69 237.439 Q2046.77 232.833 2052.58 232.833 Z" fill="#000000" fill-rule="evenodd" fill-opacity="1"></path><path clip-path="url(#clip170)" d="M2082.74 236.536 Q2079.13 236.536 2077.3 240.101 Q2075.5 243.643 2075.5 250.772 Q2075.5 257.879 2077.3 261.444 Q2079.13 264.985 2082.74 264.985 Q2086.38 264.985 2088.18 261.444 Q2090.01 257.879 2090.01 250.772 Q2090.01 243.643 2088.18 240.101 Q2086.38 236.536 2082.74 236.536 M2082.74 232.833 Q2088.55 232.833 2091.61 237.439 Q2094.69 242.022 2094.69 250.772 Q2094.69 259.499 2091.61 264.106 Q2088.55 268.689 2082.74 268.689 Q2076.93 268.689 2073.85 264.106 Q2070.8 259.499 2070.8 250.772 Q2070.8 242.022 2073.85 237.439 Q2076.93 232.833 2082.74 232.833 Z" fill="#000000" fill-rule="evenodd" fill-opacity="1"></path><path clip-path="url(#clip170)" d="M2112.9 236.536 Q2109.29 236.536 2107.46 240.101 Q2105.66 243.643 2105.66 250.772 Q2105.66 257.879 2107.46 261.444 Q2109.29 264.985 2112.9 264.985 Q2116.54 264.985 2118.34 261.444 Q2120.17 257.879 2120.17 250.772 Q2120.17 243.643 2118.34 240.101 Q2116.54 236.536 2112.9 236.536 M2112.9 232.833 Q2118.71 232.833 2121.77 237.439 Q2124.85 242.022 2124.85 250.772 Q2124.85 259.499 2121.77 264.106 Q2118.71 268.689 2112.9 268.689 Q2107.09 268.689 2104.01 264.106 Q2100.96 259.499 2100.96 250.772 Q2100.96 242.022 2104.01 237.439 Q2107.09 232.833 2112.9 232.833 Z" fill="#000000" fill-rule="evenodd" fill-opacity="1"></path><path clip-path="url(#clip170)" d="M2133.55 262.138 L2138.44 262.138 L2138.44 266.119 L2134.64 273.527 L2131.65 273.527 L2133.55 266.119 L2133.55 262.138 Z" fill="#000000" fill-rule="evenodd" fill-opacity="1"></path><path clip-path="url(#clip170)" d="M2167.72 247.069 Q2169.32 244.198 2171.54 242.833 Q2173.76 241.467 2176.77 241.467 Q2180.82 241.467 2183.02 244.314 Q2185.22 247.138 2185.22 252.369 L2185.22 268.018 L2180.94 268.018 L2180.94 252.508 Q2180.94 248.782 2179.62 246.976 Q2178.3 245.17 2175.59 245.17 Q2172.28 245.17 2170.36 247.37 Q2168.44 249.569 2168.44 253.365 L2168.44 268.018 L2164.15 268.018 L2164.15 252.508 Q2164.15 248.758 2162.83 246.976 Q2161.51 245.17 2158.76 245.17 Q2155.5 245.17 2153.57 247.393 Q2151.65 249.592 2151.65 253.365 L2151.65 268.018 L2147.37 268.018 L2147.37 242.092 L2151.65 242.092 L2151.65 246.12 Q2153.11 243.735 2155.15 242.601 Q2157.19 241.467 2159.99 241.467 Q2162.81 241.467 2164.78 242.902 Q2166.77 244.337 2167.72 247.069 Z" fill="#000000" fill-rule="evenodd" fill-opacity="1"></path><path clip-path="url(#clip170)" d="M2194.27 246.49 L2223.94 246.49 L2223.94 250.379 L2194.27 250.379 L2194.27 246.49 M2194.27 255.934 L2223.94 255.934 L2223.94 259.869 L2194.27 259.869 L2194.27 255.934 Z" fill="#000000" fill-rule="evenodd" fill-opacity="1"></path><path clip-path="url(#clip170)" d="M2246.88 237.532 L2235.08 255.981 L2246.88 255.981 L2246.88 237.532 M2245.66 233.458 L2251.54 233.458 L2251.54 255.981 L2256.47 255.981 L2256.47 259.869 L2251.54 259.869 L2251.54 268.018 L2246.88 268.018 L2246.88 259.869 L2231.28 259.869 L2231.28 255.356 L2245.66 233.458 Z" fill="#000000" fill-rule="evenodd" fill-opacity="1"></path><polyline clip-path="url(#clip170)" style="stroke:#c271d2; stroke-linecap:round; stroke-linejoin:round; stroke-width:4; stroke-opacity:1; fill:none" points="
  1462.39,302.578 1606.82,302.578 
  "></polyline>
<path clip-path="url(#clip170)" d="M1630.89 285.298 L1637.86 285.298 L1646.68 308.816 L1655.55 285.298 L1662.51 285.298 L1662.51 319.858 L1657.95 319.858 L1657.95 289.51 L1649.04 313.214 L1644.34 313.214 L1635.43 289.51 L1635.43 319.858 L1630.89 319.858 L1630.89 285.298 Z" fill="#000000" fill-rule="evenodd" fill-opacity="1"></path><path clip-path="url(#clip170)" d="M1676.47 303.353 L1676.47 316.015 L1683.97 316.015 Q1687.74 316.015 1689.55 314.464 Q1691.38 312.89 1691.38 309.672 Q1691.38 306.432 1689.55 304.904 Q1687.74 303.353 1683.97 303.353 L1676.47 303.353 M1676.47 289.14 L1676.47 299.557 L1683.39 299.557 Q1686.82 299.557 1688.48 298.284 Q1690.17 296.987 1690.17 294.348 Q1690.17 291.733 1688.48 290.436 Q1686.82 289.14 1683.39 289.14 L1676.47 289.14 M1671.8 285.298 L1683.74 285.298 Q1689.09 285.298 1691.98 287.52 Q1694.87 289.742 1694.87 293.839 Q1694.87 297.01 1693.39 298.885 Q1691.91 300.76 1689.04 301.223 Q1692.49 301.964 1694.39 304.325 Q1696.31 306.663 1696.31 310.182 Q1696.31 314.811 1693.16 317.334 Q1690.01 319.858 1684.2 319.858 L1671.8 319.858 L1671.8 285.298 Z" fill="#000000" fill-rule="evenodd" fill-opacity="1"></path><path clip-path="url(#clip170)" d="M1708.99 289.14 L1708.99 316.015 L1714.64 316.015 Q1721.79 316.015 1725.1 312.774 Q1728.44 309.534 1728.44 302.543 Q1728.44 295.598 1725.1 292.381 Q1721.79 289.14 1714.64 289.14 L1708.99 289.14 M1704.32 285.298 L1713.92 285.298 Q1723.97 285.298 1728.67 289.487 Q1733.37 293.654 1733.37 302.543 Q1733.37 311.478 1728.65 315.668 Q1723.92 319.858 1713.92 319.858 L1704.32 319.858 L1704.32 285.298 Z" fill="#000000" fill-rule="evenodd" fill-opacity="1"></path><path clip-path="url(#clip170)" d="M1741.73 313.978 L1746.61 313.978 L1746.61 317.959 L1742.81 325.367 L1739.83 325.367 L1741.73 317.959 L1741.73 313.978 Z" fill="#000000" fill-rule="evenodd" fill-opacity="1"></path><path clip-path="url(#clip170)" d="M1775.89 298.909 Q1777.49 296.038 1779.71 294.673 Q1781.93 293.307 1784.94 293.307 Q1788.99 293.307 1791.19 296.154 Q1793.39 298.978 1793.39 304.209 L1793.39 319.858 L1789.11 319.858 L1789.11 304.348 Q1789.11 300.622 1787.79 298.816 Q1786.47 297.01 1783.76 297.01 Q1780.45 297.01 1778.53 299.21 Q1776.61 301.409 1776.61 305.205 L1776.61 319.858 L1772.33 319.858 L1772.33 304.348 Q1772.33 300.598 1771.01 298.816 Q1769.69 297.01 1766.93 297.01 Q1763.67 297.01 1761.75 299.233 Q1759.83 301.432 1759.83 305.205 L1759.83 319.858 L1755.54 319.858 L1755.54 293.932 L1759.83 293.932 L1759.83 297.96 Q1761.29 295.575 1763.32 294.441 Q1765.36 293.307 1768.16 293.307 Q1770.98 293.307 1772.95 294.742 Q1774.94 296.177 1775.89 298.909 Z" fill="#000000" fill-rule="evenodd" fill-opacity="1"></path><path clip-path="url(#clip170)" d="M1802.44 298.33 L1832.12 298.33 L1832.12 302.219 L1802.44 302.219 L1802.44 298.33 M1802.44 307.774 L1832.12 307.774 L1832.12 311.709 L1802.44 311.709 L1802.44 307.774 Z" fill="#000000" fill-rule="evenodd" fill-opacity="1"></path><path clip-path="url(#clip170)" d="M1855.06 289.372 L1843.25 307.821 L1855.06 307.821 L1855.06 289.372 M1853.83 285.298 L1859.71 285.298 L1859.71 307.821 L1864.64 307.821 L1864.64 311.709 L1859.71 311.709 L1859.71 319.858 L1855.06 319.858 L1855.06 311.709 L1839.46 311.709 L1839.46 307.196 L1853.83 285.298 Z" fill="#000000" fill-rule="evenodd" fill-opacity="1"></path></svg>